G04*
G04 #@! TF.GenerationSoftware,Altium Limited,Altium Designer,25.0.2 (28)*
G04*
G04 Layer_Color=32768*
%FSLAX44Y44*%
%MOMM*%
G71*
G04*
G04 #@! TF.SameCoordinates,DAB4E7CD-7955-4A2D-9074-8748ECBEB7C7*
G04*
G04*
G04 #@! TF.FilePolarity,Positive*
G04*
G01*
G75*
%ADD14C,0.1000*%
%ADD17C,0.1524*%
%ADD101C,0.0500*%
G36*
X1240536Y602869D02*
Y617474D01*
X1289304D01*
Y602869D01*
X1292479D01*
Y557911D01*
X1289304D01*
Y543306D01*
X1240536D01*
Y557911D01*
X1237361D01*
Y602869D01*
X1240536D01*
D02*
G37*
D14*
X1568530Y782320D02*
X1578530D01*
X1573530Y777320D02*
Y787320D01*
X1508840Y880110D02*
X1518840D01*
X1513840Y875110D02*
Y885110D01*
X1209040Y651590D02*
Y661590D01*
X1204040Y656590D02*
X1214040D01*
X1512850Y478770D02*
X1547850D01*
X1512850Y539770D02*
X1547850D01*
X1512850Y478770D02*
Y539770D01*
X1547850Y478770D02*
Y539770D01*
X1530350Y504270D02*
Y514270D01*
X1525350Y509270D02*
X1535350D01*
X1440060Y1008490D02*
X1552060D01*
X1440060Y1180990D02*
X1552060D01*
X1440060Y1008490D02*
Y1180990D01*
X1552060Y1008490D02*
Y1180990D01*
X1496060Y1089740D02*
Y1099740D01*
X1491060Y1094740D02*
X1501060D01*
X1564570Y1115290D02*
X1587570D01*
X1564570Y1159290D02*
X1587570D01*
X1564570Y1115290D02*
Y1159290D01*
X1587570Y1115290D02*
Y1159290D01*
X1576070Y1132290D02*
Y1142290D01*
X1571070Y1137290D02*
X1581070D01*
D17*
X1240536Y602869D02*
Y617474D01*
X1237361Y602869D02*
X1240536D01*
X1237361Y557911D02*
Y602869D01*
Y557911D02*
X1240536D01*
Y543306D02*
Y557911D01*
Y543306D02*
X1289304D01*
Y557911D01*
X1292479D01*
Y602869D01*
X1289304D02*
X1292479D01*
X1289304D02*
Y617474D01*
X1240536D02*
X1289304D01*
D101*
X1591030Y746760D02*
Y817880D01*
X1556030Y746760D02*
Y817880D01*
X1591030D01*
X1556030Y746760D02*
X1591030D01*
X1496340Y844550D02*
Y915670D01*
X1531340Y844550D02*
Y915670D01*
X1496340Y844550D02*
X1531340D01*
X1496340Y915670D02*
X1531340D01*
X1473090Y740520D02*
Y824120D01*
X1422790D02*
X1473090D01*
X1422790D02*
Y837520D01*
X1313390D02*
X1422790D01*
X1313390Y727120D02*
Y837520D01*
Y727120D02*
X1422790D01*
Y740520D01*
X1473090D01*
X779430Y1187290D02*
X1186530D01*
X779430Y405290D02*
Y1187290D01*
Y405290D02*
X1186530D01*
Y1187290D01*
X1677480Y1194010D02*
Y1252010D01*
X1494980D02*
X1677480D01*
X1494980Y1194010D02*
Y1252010D01*
Y1194010D02*
X1677480D01*
X1424720Y1246420D02*
X1486120D01*
Y1207220D02*
Y1246420D01*
X1424720Y1207220D02*
X1486120D01*
X1424720D02*
Y1246420D01*
X1191540Y692150D02*
X1226540D01*
X1191540Y621030D02*
X1226540D01*
Y692150D01*
X1191540Y621030D02*
Y692150D01*
X1584630Y472020D02*
Y546520D01*
X1638630Y472020D02*
Y546520D01*
X1584630Y472020D02*
X1638630D01*
X1584630Y546520D02*
X1638630D01*
X1437950Y997820D02*
X1457650D01*
X1437950Y960520D02*
Y997820D01*
Y960520D02*
X1457650D01*
Y997820D01*
M02*
