G04*
G04 #@! TF.GenerationSoftware,Altium Limited,Altium Designer,25.0.2 (28)*
G04*
G04 Layer_Color=255*
%FSLAX44Y44*%
%MOMM*%
G71*
G04*
G04 #@! TF.SameCoordinates,DAB4E7CD-7955-4A2D-9074-8748ECBEB7C7*
G04*
G04*
G04 #@! TF.FilePolarity,Positive*
G04*
G01*
G75*
%ADD82C,3.2000*%
%ADD83C,2.4000*%
%ADD84O,1.7780X1.9050*%
%ADD85R,1.7780X1.7780*%
%ADD86C,1.8900*%
%ADD87C,4.0000*%
%ADD88C,2.7940*%
%ADD89R,5.0000X3.0000*%
%ADD90R,2.5400X4.0640*%
%ADD91R,4.0640X2.5400*%
%ADD92C,5.0000*%
%ADD93C,0.5000*%
%ADD94R,1.7780X1.7780*%
%ADD95O,1.9050X1.7780*%
D82*
X1079480Y518190D02*
D03*
X886480D02*
D03*
X1079480Y1074390D02*
D03*
X886480D02*
D03*
D83*
Y1162290D02*
D03*
Y433290D02*
D03*
X1079480D02*
D03*
Y1162290D02*
D03*
D84*
X952500Y321310D02*
D03*
X1060450D02*
D03*
X1446530D02*
D03*
X1644650D02*
D03*
D85*
X977900D02*
D03*
X1085850D02*
D03*
X1471930D02*
D03*
X1670050D02*
D03*
D86*
X1665530Y1223010D02*
D03*
X1506930D02*
D03*
D87*
X1558290Y283210D02*
D03*
X891540Y292100D02*
D03*
X1708150Y1054100D02*
D03*
D88*
X1383030Y1216660D02*
D03*
X1332230D02*
D03*
D89*
X1244600Y819950D02*
D03*
Y869950D02*
D03*
D90*
X1202690Y1129030D02*
D03*
D91*
X1253490Y1167130D02*
D03*
Y1103630D02*
D03*
D92*
X1749290Y1223550D02*
D03*
X1748790Y283210D02*
D03*
X808500Y282750D02*
D03*
X808450Y1223300D02*
D03*
D93*
X1592130Y502770D02*
D03*
Y515770D02*
D03*
X1605130Y502770D02*
D03*
Y515770D02*
D03*
X1618130Y502770D02*
D03*
Y515770D02*
D03*
X1631130Y502770D02*
D03*
Y515770D02*
D03*
D94*
X1709293Y906780D02*
D03*
Y1005126D02*
D03*
D95*
Y881380D02*
D03*
Y979726D02*
D03*
M02*
