G04*
G04 #@! TF.GenerationSoftware,Altium Limited,Altium Designer,25.0.2 (28)*
G04*
G04 Layer_Physical_Order=1*
G04 Layer_Color=255*
%FSLAX44Y44*%
%MOMM*%
G71*
G04*
G04 #@! TF.SameCoordinates,DAB4E7CD-7955-4A2D-9074-8748ECBEB7C7*
G04*
G04*
G04 #@! TF.FilePolarity,Positive*
G04*
G01*
G75*
%ADD18R,2.0000X4.0000*%
%ADD19R,4.0000X2.0000*%
%ADD20R,4.0000X1.6000*%
%ADD21R,1.4000X1.2000*%
%ADD22R,1.2000X1.4000*%
%ADD23R,2.5000X1.5000*%
%ADD24R,1.7000X2.5000*%
%ADD25R,10.0000X6.0000*%
%ADD26R,1.6510X1.5240*%
%ADD27R,3.2100X1.0500*%
%ADD28R,1.5000X2.5000*%
%ADD29R,1.5240X1.6510*%
%ADD30R,1.7000X1.7000*%
G04:AMPARAMS|DCode=31|XSize=1.34mm|YSize=3.29mm|CornerRadius=0.1675mm|HoleSize=0mm|Usage=FLASHONLY|Rotation=180.000|XOffset=0mm|YOffset=0mm|HoleType=Round|Shape=RoundedRectangle|*
%AMROUNDEDRECTD31*
21,1,1.3400,2.9550,0,0,180.0*
21,1,1.0050,3.2900,0,0,180.0*
1,1,0.3350,-0.5025,1.4775*
1,1,0.3350,0.5025,1.4775*
1,1,0.3350,0.5025,-1.4775*
1,1,0.3350,-0.5025,-1.4775*
%
%ADD31ROUNDEDRECTD31*%
%ADD32R,1.5000X1.6000*%
%ADD33R,0.5588X1.4605*%
%ADD34R,1.5500X2.3500*%
G04:AMPARAMS|DCode=35|XSize=1.55mm|YSize=0.6mm|CornerRadius=0.03mm|HoleSize=0mm|Usage=FLASHONLY|Rotation=90.000|XOffset=0mm|YOffset=0mm|HoleType=Round|Shape=RoundedRectangle|*
%AMROUNDEDRECTD35*
21,1,1.5500,0.5400,0,0,90.0*
21,1,1.4900,0.6000,0,0,90.0*
1,1,0.0600,0.2700,0.7450*
1,1,0.0600,0.2700,-0.7450*
1,1,0.0600,-0.2700,-0.7450*
1,1,0.0600,-0.2700,0.7450*
%
%ADD35ROUNDEDRECTD35*%
%ADD36R,1.0500X4.2000*%
%ADD37R,10.0000X9.0000*%
%ADD38R,1.4700X1.2850*%
%ADD39R,1.1430X0.9100*%
%ADD56R,3.5052X2.6162*%
%ADD75R,8.4600X10.5300*%
%ADD76R,4.9000X2.9500*%
%ADD77C,1.0000*%
%ADD78C,2.0000*%
%ADD79C,3.0000*%
%ADD80C,0.8000*%
%ADD81C,0.7500*%
%ADD82C,3.2000*%
%ADD83C,2.4000*%
%ADD84O,1.7780X1.9050*%
%ADD85R,1.7780X1.7780*%
%ADD86C,1.8900*%
%ADD87C,4.0000*%
%ADD88C,2.7940*%
%ADD89R,5.0000X3.0000*%
%ADD90R,2.5400X4.0640*%
%ADD91R,4.0640X2.5400*%
%ADD92C,5.0000*%
%ADD93C,0.5000*%
%ADD94R,1.7780X1.7780*%
%ADD95O,1.9050X1.7780*%
G36*
X1463896Y1246436D02*
X1465506Y1243612D01*
X1465392Y1243337D01*
X1465376Y1243219D01*
X1462709Y1241031D01*
X1460210Y1237985D01*
X1458353Y1234511D01*
X1457209Y1230741D01*
X1456823Y1226820D01*
X1457209Y1222899D01*
X1458353Y1219129D01*
X1460210Y1215655D01*
X1462709Y1212609D01*
X1464159Y1211160D01*
X1464160Y1211159D01*
X1465489Y1210069D01*
X1466064Y1208679D01*
X1467134Y1207284D01*
X1468529Y1206214D01*
X1470152Y1205542D01*
X1471895Y1205312D01*
X1477972D01*
X1478370Y1205273D01*
X1478370Y1205273D01*
X1486833D01*
Y1184740D01*
X1448599D01*
X1447793Y1186686D01*
X1447679Y1187740D01*
X1448510Y1188570D01*
X1448789Y1188988D01*
X1449144Y1189343D01*
X1449406Y1189736D01*
X1449599Y1190200D01*
X1449615Y1190224D01*
X1449620Y1190253D01*
X1449954Y1191057D01*
X1449970Y1191081D01*
X1449976Y1191110D01*
X1450168Y1191574D01*
X1450260Y1192038D01*
Y1192540D01*
X1450358Y1193032D01*
X1450358Y1246612D01*
X1463637D01*
X1463896Y1246436D01*
D02*
G37*
G36*
X1772392Y1196358D02*
X1651000D01*
X1649049Y1195970D01*
X1647395Y1194865D01*
X1646290Y1193211D01*
X1645902Y1191260D01*
Y1010938D01*
X1626637D01*
X1626285Y1010868D01*
X1626248Y1010875D01*
X1626167Y1010859D01*
X1625916Y1010875D01*
X1625583Y1010832D01*
X1625163Y1010689D01*
X1624998Y1010667D01*
X1624943Y1010649D01*
X1624942Y1010648D01*
X1624942D01*
X1624884Y1010637D01*
X1624731Y1010573D01*
X1624297Y1010487D01*
X1623987Y1010359D01*
X1623916Y1010312D01*
X1623907Y1010308D01*
X1623714Y1010197D01*
X1623699Y1010192D01*
X1623687Y1010182D01*
X1623651Y1010161D01*
X1623331Y1010052D01*
X1623296Y1010032D01*
X1623295Y1010032D01*
X1623152Y1009949D01*
X1622996Y1009896D01*
X1622749Y1009753D01*
X1622520Y1009692D01*
X1622423Y1009685D01*
X1622098Y1009598D01*
X1621482D01*
X1621157Y1009685D01*
X1621060Y1009692D01*
X1620831Y1009753D01*
X1620584Y1009896D01*
X1620428Y1009949D01*
X1620285Y1010032D01*
X1620284Y1010032D01*
X1620249Y1010052D01*
X1619930Y1010161D01*
X1619893Y1010182D01*
X1619881Y1010192D01*
X1619866Y1010198D01*
X1619674Y1010308D01*
X1619664Y1010312D01*
X1619593Y1010359D01*
X1619283Y1010487D01*
X1618847Y1010574D01*
X1618693Y1010638D01*
X1618637Y1010649D01*
X1618582Y1010667D01*
X1618418Y1010689D01*
X1617997Y1010832D01*
X1617664Y1010876D01*
X1617413Y1010859D01*
X1617332Y1010875D01*
X1617295Y1010868D01*
X1616943Y1010938D01*
X1602312D01*
X1594915Y1018335D01*
X1594915Y1018335D01*
X1587518Y1025732D01*
Y1047248D01*
X1587420Y1047740D01*
X1587420Y1048242D01*
X1587228Y1048706D01*
X1587130Y1049199D01*
X1587114Y1049223D01*
X1586781Y1050027D01*
X1586781Y1050027D01*
X1586775Y1050056D01*
X1586495Y1050474D01*
X1586303Y1050939D01*
X1586140Y1051101D01*
Y1072775D01*
X1586140Y1074956D01*
X1586140Y1074956D01*
X1586026Y1075728D01*
X1586026D01*
Y1099728D01*
X1585660D01*
Y1111340D01*
X1586785D01*
Y1130440D01*
X1579146D01*
X1578681Y1130633D01*
X1576070Y1130976D01*
X1576024D01*
X1573414Y1130633D01*
X1572948Y1130440D01*
X1567106D01*
Y1143604D01*
X1572157D01*
X1572593Y1143168D01*
X1574682Y1141565D01*
X1577114Y1140557D01*
X1579725Y1140214D01*
X1590078D01*
Y1120300D01*
X1592006D01*
X1592335Y1117799D01*
X1593343Y1115367D01*
X1594946Y1113278D01*
X1600804Y1107420D01*
X1602893Y1105817D01*
X1605325Y1104809D01*
X1607936Y1104466D01*
X1616155D01*
Y1101932D01*
X1642665D01*
Y1127172D01*
X1616155D01*
X1614078Y1129312D01*
Y1139300D01*
Y1161300D01*
X1590078D01*
Y1160386D01*
X1586785D01*
Y1163240D01*
X1579146D01*
X1578681Y1163433D01*
X1576070Y1163776D01*
X1562878D01*
X1560267Y1163433D01*
X1557835Y1162425D01*
X1555746Y1160822D01*
X1553832Y1158908D01*
X1551060Y1160056D01*
Y1184740D01*
X1527027D01*
Y1223010D01*
X1526641Y1226931D01*
X1525497Y1230701D01*
X1523640Y1234175D01*
X1521141Y1237221D01*
X1518095Y1239720D01*
X1514621Y1241577D01*
X1513331Y1241968D01*
X1513195Y1242080D01*
X1510328Y1243612D01*
X1510835Y1246612D01*
X1772392D01*
Y1196358D01*
D02*
G37*
G36*
X1445260Y1204729D02*
Y1193032D01*
X1445244Y1193008D01*
X1444910Y1192203D01*
X1444905Y1192175D01*
X1434455Y1181725D01*
X1434455Y1181725D01*
X1417543Y1164813D01*
X1416050Y1163320D01*
Y1161208D01*
Y1125722D01*
X1416008Y1125660D01*
X1415892Y1125378D01*
X1415610Y1125262D01*
X1415548Y1125220D01*
X1289050D01*
Y1120122D01*
Y847844D01*
X1288958Y847380D01*
X1288695Y846987D01*
X1286613Y844905D01*
X1286082Y844550D01*
X1183640D01*
Y1099066D01*
X1183732Y1099530D01*
X1183995Y1099923D01*
X1186077Y1102005D01*
X1186608Y1102360D01*
X1220010D01*
X1220470Y1102360D01*
X1221740Y1101090D01*
X1223010Y1102360D01*
X1223010Y1104063D01*
X1223010Y1246612D01*
X1445260D01*
X1445260Y1204729D01*
D02*
G37*
G36*
X1582065Y1048105D02*
X1582065Y1048105D01*
X1582071Y1048077D01*
X1582404Y1047272D01*
X1582420Y1047248D01*
Y1025732D01*
Y1023620D01*
X1583913Y1022127D01*
X1583913Y1022127D01*
X1591310Y1014730D01*
X1600200Y1005840D01*
X1616943D01*
X1616999Y1005821D01*
X1617332Y1005777D01*
X1617643Y1005649D01*
X1617700Y1005637D01*
X1617879Y1005534D01*
X1618035Y1005481D01*
X1618035Y1005481D01*
X1618326Y1005313D01*
X1618646Y1005204D01*
X1618790Y1005121D01*
X1618946Y1005068D01*
X1619045Y1005055D01*
X1619556Y1004803D01*
X1619881Y1004716D01*
X1619881D01*
X1619881Y1004716D01*
X1620159Y1004642D01*
X1620824Y1004598D01*
X1621478Y1004468D01*
X1622102D01*
X1622756Y1004598D01*
X1623421Y1004642D01*
X1624024Y1004803D01*
X1624535Y1005055D01*
X1624634Y1005068D01*
X1624790Y1005121D01*
X1624934Y1005204D01*
X1625254Y1005313D01*
X1625545Y1005481D01*
X1625701Y1005534D01*
X1625880Y1005637D01*
X1625938Y1005649D01*
X1626248Y1005777D01*
X1626581Y1005821D01*
X1626637Y1005840D01*
X1645956D01*
X1646073Y1005251D01*
X1646203Y1004385D01*
X1646941Y1002332D01*
X1647067Y1002121D01*
X1647127Y1001883D01*
X1647576Y1001275D01*
X1647966Y1000627D01*
X1648163Y1000481D01*
X1648309Y1000284D01*
X1648957Y999894D01*
X1649566Y999445D01*
X1649803Y999385D01*
X1650014Y999259D01*
X1652068Y998521D01*
X1652933Y998391D01*
X1653792Y998220D01*
X1662430D01*
Y927100D01*
X1653792D01*
X1652934Y926929D01*
X1652067Y926799D01*
X1650014Y926061D01*
X1649803Y925935D01*
X1649566Y925875D01*
X1648957Y925426D01*
X1648309Y925036D01*
X1648163Y924839D01*
X1647966Y924693D01*
X1647576Y924045D01*
X1647127Y923437D01*
X1647067Y923198D01*
X1646941Y922988D01*
X1646203Y920935D01*
X1646073Y920069D01*
X1645902Y919210D01*
Y902952D01*
X1644015Y901065D01*
X1548765D01*
X1544955Y897255D01*
Y843915D01*
X1541780Y840740D01*
X1537419D01*
X1536929Y841142D01*
X1534323Y842535D01*
X1531496Y843393D01*
X1528555Y843682D01*
X1523110D01*
X1520170Y843393D01*
X1517342Y842535D01*
X1514736Y841142D01*
X1514246Y840740D01*
X1412240D01*
X1410970Y842010D01*
Y875030D01*
X1407160Y878840D01*
X1403029D01*
X1403004Y878856D01*
X1402200Y879189D01*
X1402171Y879195D01*
X1401605Y879762D01*
X1399895Y880749D01*
X1397987Y881260D01*
X1396013D01*
X1394105Y880749D01*
X1392395Y879762D01*
X1391828Y879195D01*
X1391800Y879190D01*
X1390995Y878856D01*
X1390971Y878840D01*
X1378264D01*
X1378239Y878856D01*
X1377435Y879189D01*
X1377406Y879195D01*
X1376840Y879762D01*
X1375130Y880749D01*
X1373222Y881260D01*
X1371248D01*
X1369340Y880749D01*
X1367630Y879762D01*
X1367063Y879195D01*
X1367035Y879190D01*
X1366230Y878856D01*
X1366206Y878840D01*
X1361942D01*
X1361918Y878856D01*
X1361113Y879189D01*
X1361085Y879195D01*
X1358340Y881940D01*
X1358340Y881940D01*
X1357985Y882295D01*
X1357979Y882323D01*
X1357646Y883128D01*
X1357630Y883152D01*
Y999756D01*
Y1000258D01*
X1357646Y1000282D01*
X1357979Y1001087D01*
X1357985Y1001115D01*
X1362710Y1005840D01*
X1367080Y1010210D01*
X1367080Y1010210D01*
X1367435Y1010565D01*
X1367464Y1010571D01*
X1368268Y1010904D01*
X1368292Y1010920D01*
X1368794D01*
X1430788D01*
X1430788Y1010920D01*
X1430812Y1010904D01*
X1431616Y1010571D01*
X1431645Y1010565D01*
X1435100Y1007110D01*
Y954367D01*
Y919480D01*
X1435100Y863618D01*
Y858520D01*
X1447211D01*
X1468143Y858520D01*
X1483360D01*
X1483458Y858618D01*
X1483710D01*
X1484022Y858680D01*
X1489044D01*
Y862500D01*
X1489220Y862974D01*
X1489408Y864151D01*
X1489441Y864240D01*
X1489504Y864638D01*
X1489789Y864922D01*
X1489842Y865002D01*
X1490980Y866140D01*
Y882148D01*
X1491022Y882210D01*
X1491138Y882492D01*
X1491420Y882608D01*
X1491482Y882650D01*
X1500340D01*
Y882610D01*
X1527340D01*
Y882650D01*
X1529080D01*
X1532890Y886460D01*
X1532832Y890448D01*
X1532306Y926779D01*
X1532262Y929807D01*
X1532344Y930220D01*
Y930239D01*
X1532357Y930252D01*
X1532357Y930252D01*
X1532360Y930255D01*
X1532588Y930608D01*
X1536477Y934497D01*
X1536477Y934497D01*
X1537970Y935990D01*
X1537970Y936923D01*
Y1043940D01*
X1543050Y1049020D01*
X1581150D01*
X1582065Y1048105D01*
D02*
G37*
G36*
X1772392Y581132D02*
X1743710Y552450D01*
X1700490D01*
X1700181Y552985D01*
X1698785Y554381D01*
X1697075Y555369D01*
X1695167Y555880D01*
X1693193D01*
X1691285Y555369D01*
X1689575Y554381D01*
X1688179Y552985D01*
X1687870Y552450D01*
X1659066D01*
X1658145Y553371D01*
X1656435Y554359D01*
X1654527Y554870D01*
X1652553D01*
X1650645Y554359D01*
X1648935Y553371D01*
X1648013Y552450D01*
X1546092D01*
X1545628Y552542D01*
X1545235Y552805D01*
X1541780Y556260D01*
Y568960D01*
X1545590Y572770D01*
X1548864D01*
Y572584D01*
X1572864D01*
Y572584D01*
X1575534D01*
Y572584D01*
X1599534D01*
Y572584D01*
X1602204D01*
Y572584D01*
X1626204D01*
Y572770D01*
X1628140D01*
Y598170D01*
X1630680Y600710D01*
X1656080D01*
X1656850Y601480D01*
X1657150D01*
Y601780D01*
X1670050Y614680D01*
X1731010Y614680D01*
X1734820Y618490D01*
Y689610D01*
X1672590D01*
Y742950D01*
X1676400Y746760D01*
X1682750D01*
Y819272D01*
X1686377D01*
Y843271D01*
X1665176D01*
X1664055Y843919D01*
X1662147Y844430D01*
X1660173D01*
X1658265Y843919D01*
X1658200Y843881D01*
X1655200Y845613D01*
Y893520D01*
X1651000D01*
Y919210D01*
X1651738Y921264D01*
X1653792Y922002D01*
X1662430D01*
X1662922Y922100D01*
X1662922D01*
X1663341Y922183D01*
X1663341Y922183D01*
X1664381Y922390D01*
X1666035Y923495D01*
X1667140Y925149D01*
X1667347Y926189D01*
X1667347Y926189D01*
X1667430Y926608D01*
Y926608D01*
X1667528Y927100D01*
Y998220D01*
X1667430Y998712D01*
Y998712D01*
X1667347Y999131D01*
X1667347Y999131D01*
X1667140Y1000171D01*
X1666035Y1001825D01*
X1664381Y1002930D01*
X1663341Y1003137D01*
X1663341Y1003137D01*
X1662922Y1003220D01*
X1662922D01*
X1662430Y1003318D01*
X1653792D01*
X1651738Y1004056D01*
X1651000Y1006110D01*
Y1191260D01*
X1772392D01*
Y581132D01*
D02*
G37*
G36*
X1532872Y996312D02*
Y938102D01*
X1528983Y934212D01*
X1528719Y933818D01*
X1528702Y933806D01*
X1528687Y933790D01*
X1528642Y933720D01*
X1528305Y933373D01*
X1528078Y933021D01*
X1527974Y932760D01*
X1527797Y932532D01*
X1527751Y932365D01*
X1527634Y932190D01*
X1527627Y932152D01*
X1527606Y932121D01*
X1527528Y931695D01*
X1527524Y931689D01*
X1527511Y931618D01*
X1527344Y931215D01*
X1527262Y930801D01*
Y930318D01*
X1527246Y930239D01*
Y930220D01*
X1527250Y930199D01*
X1527164Y929733D01*
X1527208Y926705D01*
X1527735Y890374D01*
X1527735Y890374D01*
X1525102Y887708D01*
X1500541D01*
X1500340Y887748D01*
X1491482D01*
X1490989Y887650D01*
X1490487Y887650D01*
X1490023Y887458D01*
X1489531Y887360D01*
X1489469Y887318D01*
X1489187Y887202D01*
X1489187Y887202D01*
X1489187D01*
X1488832Y886964D01*
X1488649Y886889D01*
X1488587Y886847D01*
X1488447Y886707D01*
X1487534Y886097D01*
X1487534Y886097D01*
X1487533Y886096D01*
X1486923Y885183D01*
X1486783Y885043D01*
X1486741Y884981D01*
X1486666Y884798D01*
X1486428Y884443D01*
X1486428Y884443D01*
X1486428Y884443D01*
X1486312Y884161D01*
X1486270Y884099D01*
X1486172Y883607D01*
X1485980Y883143D01*
X1485980Y882641D01*
X1485882Y882148D01*
Y868217D01*
X1485674Y867905D01*
X1485603Y867834D01*
X1485550Y867755D01*
X1485529Y867704D01*
X1485161Y867308D01*
X1485020Y866927D01*
X1484794Y866589D01*
X1484689Y866058D01*
X1484660Y866012D01*
X1484627Y865922D01*
X1484215Y864931D01*
X1482012Y863618D01*
X1468143D01*
X1447211Y863618D01*
X1440198D01*
X1440198Y919480D01*
Y954367D01*
X1447800D01*
X1450741Y954657D01*
X1453568Y955515D01*
X1456174Y956908D01*
X1457523Y958015D01*
X1460150D01*
Y960844D01*
X1460332Y961066D01*
X1461725Y963672D01*
X1462583Y966499D01*
X1462873Y969440D01*
X1462583Y972381D01*
X1461725Y975208D01*
X1461402Y975814D01*
X1463200Y978814D01*
X1507982D01*
X1510593Y979157D01*
X1513025Y980165D01*
X1515114Y981768D01*
X1528342Y994996D01*
X1529872Y996990D01*
X1530183Y997022D01*
X1532872Y996312D01*
D02*
G37*
G36*
X1217912Y1154350D02*
X1184990D01*
Y1107171D01*
X1184481Y1107070D01*
X1182827Y1105965D01*
X1180035Y1103173D01*
X1178930Y1101519D01*
X1178542Y1099568D01*
Y844568D01*
X1163338D01*
Y1176788D01*
X1163240Y1177280D01*
Y1177783D01*
X1163148Y1178246D01*
X1162956Y1178710D01*
X1162950Y1178739D01*
X1162934Y1178763D01*
X1162600Y1179567D01*
X1162595Y1179596D01*
X1162579Y1179620D01*
X1162387Y1180084D01*
X1162124Y1180477D01*
X1161769Y1180832D01*
X1161490Y1181250D01*
X1154580Y1188160D01*
X1154162Y1188439D01*
X1153807Y1188794D01*
X1153414Y1189057D01*
X1152950Y1189249D01*
X1152926Y1189265D01*
X1152897Y1189270D01*
X1152093Y1189604D01*
X1152069Y1189620D01*
X1152040Y1189626D01*
X1151576Y1189818D01*
X1151113Y1189910D01*
X1150610D01*
X1150118Y1190008D01*
X1040632D01*
X1040140Y1189910D01*
X1039638Y1189910D01*
X1039219Y1189827D01*
X1039219Y1189827D01*
X1039219D01*
X1038755Y1189635D01*
X1038681Y1189620D01*
X1038619Y1189578D01*
X1037381Y1189066D01*
X1037381Y1189065D01*
X1037381Y1189065D01*
X1036678Y1188362D01*
X1035975Y1187659D01*
X1035975Y1187659D01*
X1035974Y1187659D01*
X1035462Y1186421D01*
X1035420Y1186359D01*
X1035405Y1186285D01*
X1035213Y1185821D01*
Y1185821D01*
X1035213Y1185821D01*
X1035130Y1185402D01*
X1035130Y1184900D01*
X1035032Y1184408D01*
Y1179235D01*
X1032032Y1177992D01*
X1032032Y1177993D01*
X1022500Y1187525D01*
X1022082Y1187804D01*
X1021727Y1188159D01*
X1021334Y1188422D01*
X1020870Y1188614D01*
X1020846Y1188630D01*
X1020817Y1188636D01*
X1020013Y1188969D01*
X1019989Y1188985D01*
X1019960Y1188991D01*
X1019496Y1189183D01*
X1019033Y1189275D01*
X1018530D01*
X1018038Y1189373D01*
X853942D01*
X853450Y1189275D01*
X852948Y1189275D01*
X852529Y1189192D01*
X852529Y1189192D01*
X852529D01*
X852065Y1189000D01*
X851991Y1188985D01*
X851929Y1188943D01*
X850691Y1188431D01*
X850691Y1188430D01*
X850691Y1188430D01*
X849988Y1187727D01*
X849285Y1187024D01*
X849285Y1187024D01*
X849284Y1187024D01*
X848772Y1185786D01*
X848730Y1185724D01*
X848715Y1185650D01*
X848523Y1185186D01*
Y1185186D01*
X848523Y1185186D01*
X848440Y1184767D01*
X848440Y1184265D01*
X848342Y1183773D01*
Y596265D01*
Y592957D01*
X848440Y592465D01*
X848440Y591963D01*
X848523Y591544D01*
X848523Y591544D01*
Y591544D01*
X848715Y591080D01*
X848730Y591006D01*
X848772Y590944D01*
X849284Y589706D01*
X849285Y589706D01*
X849285Y589706D01*
X849988Y589003D01*
X850691Y588300D01*
X850691Y588300D01*
X850691Y588299D01*
X851929Y587787D01*
X851991Y587745D01*
X852065Y587730D01*
X852529Y587538D01*
X852529D01*
X852529Y587538D01*
X852948Y587455D01*
X853450Y587455D01*
X853942Y587357D01*
X957562D01*
Y407537D01*
X957660Y407045D01*
X957660Y406543D01*
X957743Y406124D01*
X957743Y406124D01*
Y406124D01*
X957935Y405660D01*
X957950Y405586D01*
X957992Y405524D01*
X958504Y404286D01*
X958505Y404286D01*
X958505Y404286D01*
X959208Y403583D01*
X959911Y402880D01*
X959911Y402880D01*
X959911Y402879D01*
X961149Y402367D01*
X961211Y402325D01*
X961285Y402310D01*
X961749Y402118D01*
X961749D01*
X961749Y402118D01*
X962168Y402035D01*
X962670Y402035D01*
X963162Y401937D01*
X1147578D01*
X1148070Y402035D01*
X1148572D01*
X1149036Y402127D01*
X1149036D01*
X1149500Y402319D01*
X1149529Y402325D01*
X1149553Y402341D01*
X1150357Y402674D01*
X1150386Y402680D01*
X1150410Y402696D01*
X1150874Y402888D01*
X1150874Y402888D01*
X1151267Y403151D01*
X1151622Y403506D01*
X1152040Y403785D01*
X1152600Y404345D01*
X1152879Y404763D01*
X1153234Y405118D01*
X1153496Y405511D01*
X1153689Y405975D01*
X1153705Y405999D01*
X1153710Y406028D01*
X1154044Y406832D01*
X1154060Y406856D01*
X1154066Y406885D01*
X1154258Y407349D01*
X1154350Y407812D01*
Y408315D01*
X1154448Y408807D01*
Y755015D01*
X1154417Y755172D01*
X1156587Y758172D01*
X1283468D01*
X1283960Y758270D01*
X1284462Y758270D01*
X1284881Y758353D01*
X1284881Y758353D01*
X1284881D01*
X1285345Y758545D01*
X1285419Y758560D01*
X1285481Y758602D01*
X1286719Y759114D01*
X1286719Y759115D01*
X1286719Y759115D01*
X1287422Y759818D01*
X1288125Y760521D01*
X1288125Y760521D01*
X1288126Y760521D01*
X1288638Y761759D01*
X1288680Y761821D01*
X1288695Y761895D01*
X1288887Y762359D01*
Y762359D01*
X1288887Y762359D01*
X1288970Y762778D01*
X1288970Y763280D01*
X1289068Y763772D01*
Y839452D01*
X1288899Y840301D01*
X1289863Y840945D01*
X1292655Y843737D01*
X1293760Y845391D01*
X1294148Y847342D01*
Y1120122D01*
X1415548D01*
X1416040Y1120220D01*
X1416542Y1120220D01*
X1416961Y1120303D01*
X1416961Y1120303D01*
X1416961D01*
X1417425Y1120495D01*
X1417499Y1120510D01*
X1417561Y1120552D01*
X1418799Y1121064D01*
X1418799Y1121065D01*
X1418799Y1121065D01*
X1419502Y1121768D01*
X1420205Y1122471D01*
X1420205Y1122471D01*
X1420206Y1122471D01*
X1420718Y1123709D01*
X1420760Y1123771D01*
X1420775Y1123845D01*
X1420967Y1124309D01*
Y1124309D01*
X1420967Y1124309D01*
X1421050Y1124728D01*
X1421050Y1125230D01*
X1421148Y1125722D01*
Y1161208D01*
X1438060Y1178120D01*
X1439113Y1178007D01*
X1441060Y1177201D01*
Y1090202D01*
X1438910Y1088316D01*
X1420670D01*
Y1093230D01*
X1370670D01*
Y1063230D01*
X1420670D01*
Y1068144D01*
X1434732D01*
X1437714Y1065162D01*
Y1015471D01*
X1435253Y1014598D01*
X1434714Y1014567D01*
X1434478Y1014803D01*
X1434014Y1014996D01*
X1433596Y1015275D01*
X1433567Y1015281D01*
X1432763Y1015614D01*
X1432739Y1015630D01*
X1432559Y1015666D01*
X1432400Y1015756D01*
X1432400Y1015756D01*
X1432079Y1015797D01*
X1431781Y1015920D01*
X1431280Y1015920D01*
X1430788Y1016018D01*
X1368292D01*
X1367799Y1015920D01*
X1367297Y1015920D01*
X1366833Y1015728D01*
X1366341Y1015630D01*
X1366317Y1015614D01*
X1365513Y1015281D01*
X1365484Y1015275D01*
X1365067Y1014996D01*
X1364604Y1014805D01*
X1364249Y1014449D01*
X1363830Y1014170D01*
X1363475Y1013815D01*
X1363475Y1013815D01*
X1359105Y1009445D01*
X1359105Y1009445D01*
X1354380Y1004720D01*
X1354101Y1004302D01*
X1353746Y1003947D01*
X1353554Y1003484D01*
X1353275Y1003066D01*
X1353270Y1003037D01*
X1352936Y1002233D01*
X1352920Y1002209D01*
X1352822Y1001717D01*
X1352630Y1001255D01*
X1352630Y1000751D01*
X1352532Y1000258D01*
Y999756D01*
Y883152D01*
X1352630Y882659D01*
X1352630Y882157D01*
X1352822Y881693D01*
X1352920Y881201D01*
X1352936Y881177D01*
X1353270Y880372D01*
X1353275Y880344D01*
X1353554Y879927D01*
X1353746Y879463D01*
X1354101Y879108D01*
X1354380Y878690D01*
X1354735Y878335D01*
X1354735Y878335D01*
X1357480Y875590D01*
X1357898Y875311D01*
X1358253Y874956D01*
X1358717Y874764D01*
X1359134Y874485D01*
X1359162Y874480D01*
X1359967Y874146D01*
X1359991Y874130D01*
X1360483Y874032D01*
X1360945Y873840D01*
X1361449Y873840D01*
X1361942Y873742D01*
X1366206D01*
X1366699Y873840D01*
X1367202Y873840D01*
X1367665Y874032D01*
X1368157Y874130D01*
X1368181Y874146D01*
X1368986Y874480D01*
X1368986Y874480D01*
X1369014Y874485D01*
X1369432Y874764D01*
X1369895Y874956D01*
X1370250Y875311D01*
X1370668Y875590D01*
X1370760Y875682D01*
X1371308Y875998D01*
X1371919Y876162D01*
X1372551D01*
X1373162Y875998D01*
X1373710Y875682D01*
X1373802Y875590D01*
X1374220Y875311D01*
X1374575Y874956D01*
X1375038Y874764D01*
X1375456Y874485D01*
X1375484Y874480D01*
X1376288Y874146D01*
X1376313Y874130D01*
X1376804Y874032D01*
X1377267Y873840D01*
X1377770Y873840D01*
X1378264Y873742D01*
X1390971D01*
X1391464Y873840D01*
X1391967Y873840D01*
X1392430Y874032D01*
X1392922Y874130D01*
X1392946Y874146D01*
X1393751Y874480D01*
X1393751Y874480D01*
X1393779Y874485D01*
X1394197Y874764D01*
X1394660Y874956D01*
X1395015Y875311D01*
X1395433Y875590D01*
X1395490Y875647D01*
X1398510Y875647D01*
X1398567Y875590D01*
X1398985Y875311D01*
X1399340Y874956D01*
X1399803Y874764D01*
X1400221Y874485D01*
X1400249Y874480D01*
X1401053Y874146D01*
X1401078Y874130D01*
X1401570Y874032D01*
X1402034Y873840D01*
X1402156D01*
X1403222Y873450D01*
X1405017Y870742D01*
X1405000Y870280D01*
X1404620Y869968D01*
X1303020D01*
X1301069Y869580D01*
X1299415Y868475D01*
X1298310Y866821D01*
X1297922Y864870D01*
Y709930D01*
X1298310Y707979D01*
X1299415Y706325D01*
X1301069Y705220D01*
X1303020Y704832D01*
X1338093D01*
Y686864D01*
X1338479Y682943D01*
X1339623Y679173D01*
X1341480Y675698D01*
X1343979Y672653D01*
X1361553Y655080D01*
X1361553Y655079D01*
X1364598Y652580D01*
X1368073Y650723D01*
X1371843Y649579D01*
X1375764Y649193D01*
X1375764Y649193D01*
X1417320D01*
X1421241Y649579D01*
X1425011Y650723D01*
X1428485Y652580D01*
X1430480Y654217D01*
X1445260D01*
X1448201Y654507D01*
X1451028Y655365D01*
X1453634Y656758D01*
X1455918Y658632D01*
X1457792Y660916D01*
X1459185Y663522D01*
X1460043Y666349D01*
X1460333Y669290D01*
X1460260Y670026D01*
X1466362Y676128D01*
X1467965Y678217D01*
X1468973Y680649D01*
X1469316Y683260D01*
Y713372D01*
X1487538Y731594D01*
X1556890D01*
X1559500Y731937D01*
X1561933Y732945D01*
X1564022Y734548D01*
X1574294Y744820D01*
X1587030D01*
Y752234D01*
X1614662D01*
X1617273Y752577D01*
X1619705Y753585D01*
X1621794Y755188D01*
X1627652Y761046D01*
X1629255Y763135D01*
X1630263Y765567D01*
X1630606Y768178D01*
Y785163D01*
X1631178Y785632D01*
X1633052Y787916D01*
X1634445Y790522D01*
X1635303Y793350D01*
X1635593Y796290D01*
Y823520D01*
X1655200D01*
Y836441D01*
X1655858Y837427D01*
X1656157Y837758D01*
X1657535Y838827D01*
X1658200Y838871D01*
X1658865Y838827D01*
X1659184Y838935D01*
X1659519Y838957D01*
X1659609Y839001D01*
X1660844Y839332D01*
X1661476D01*
X1662087Y839168D01*
X1662627Y838857D01*
X1662946Y838748D01*
X1663225Y838562D01*
X1663879Y838431D01*
X1664511Y838217D01*
X1664846Y838239D01*
X1665176Y838174D01*
X1681279D01*
Y824077D01*
X1680799Y823981D01*
X1679145Y822876D01*
X1678040Y821223D01*
X1677652Y819272D01*
Y751858D01*
X1676400D01*
X1674449Y751470D01*
X1672795Y750365D01*
X1668985Y746555D01*
X1667880Y744901D01*
X1667492Y742950D01*
Y714843D01*
X1604252D01*
X1601311Y714553D01*
X1598483Y713695D01*
X1595878Y712302D01*
X1593594Y710428D01*
X1592308Y709142D01*
X1590623D01*
Y707165D01*
X1590091Y706516D01*
X1588698Y703910D01*
X1587841Y701083D01*
X1587551Y698142D01*
X1587841Y695201D01*
X1588698Y692374D01*
X1586409Y690292D01*
X1560275D01*
Y665052D01*
X1586785D01*
Y668321D01*
X1590623D01*
Y668142D01*
X1614624D01*
Y684697D01*
X1671658D01*
X1672590Y684512D01*
X1729722D01*
Y620602D01*
X1728898Y619778D01*
X1670050Y619778D01*
X1668099Y619390D01*
X1666445Y618285D01*
X1653968Y605808D01*
X1630680D01*
X1628729Y605420D01*
X1627075Y604315D01*
X1624535Y601775D01*
X1623430Y600121D01*
X1623042Y598170D01*
Y577682D01*
X1602204D01*
X1602204Y577682D01*
X1599534D01*
X1599534Y577682D01*
X1575534D01*
X1575534Y577682D01*
X1572864D01*
X1572864Y577682D01*
X1549799D01*
X1548864Y577868D01*
X1545590D01*
X1543639Y577480D01*
X1541985Y576375D01*
X1538175Y572565D01*
X1537070Y570911D01*
X1536682Y568960D01*
Y558023D01*
X1534025Y555433D01*
X1532908Y555502D01*
Y632460D01*
X1532520Y634411D01*
X1531415Y636065D01*
X1529761Y637170D01*
X1527810Y637558D01*
X1362710D01*
X1360759Y637170D01*
X1359105Y636065D01*
X1358829Y635652D01*
X1356872Y635186D01*
X1355516Y635192D01*
X1355245Y635277D01*
X1349774Y640748D01*
X1347685Y642351D01*
X1345253Y643359D01*
X1342642Y643702D01*
X1342190D01*
Y649470D01*
X1317190D01*
Y643250D01*
X1311244D01*
Y644164D01*
X1287244D01*
Y643250D01*
X1283304D01*
Y644164D01*
X1263668D01*
Y647198D01*
X1263570Y647690D01*
Y648193D01*
X1263478Y648656D01*
X1263286Y649120D01*
X1263280Y649149D01*
X1263264Y649173D01*
X1262931Y649977D01*
X1262925Y650006D01*
X1262909Y650030D01*
X1262717Y650494D01*
X1262454Y650887D01*
X1262099Y651242D01*
X1261820Y651660D01*
X1256830Y656650D01*
Y682780D01*
X1254686D01*
Y709562D01*
X1261892Y716768D01*
X1263495Y718857D01*
X1264503Y721290D01*
X1264846Y723900D01*
X1264503Y726510D01*
X1263495Y728943D01*
X1261892Y731032D01*
X1259803Y732635D01*
X1257371Y733643D01*
X1254760Y733986D01*
X1252150Y733643D01*
X1249717Y732635D01*
X1247628Y731032D01*
X1237468Y720872D01*
X1235865Y718783D01*
X1234857Y716350D01*
X1234514Y713740D01*
Y682780D01*
X1229830D01*
Y660418D01*
X1182872D01*
X1182380Y660320D01*
X1181878D01*
X1181413Y660228D01*
X1180950Y660036D01*
X1180921Y660030D01*
X1180897Y660014D01*
X1180093Y659681D01*
X1180064Y659675D01*
X1180040Y659659D01*
X1179576Y659467D01*
X1179183Y659204D01*
X1178828Y658849D01*
X1178410Y658570D01*
X1165150Y645310D01*
X1164871Y644892D01*
X1164516Y644537D01*
X1164253Y644144D01*
X1164061Y643680D01*
X1164045Y643656D01*
X1164040Y643627D01*
X1163706Y642823D01*
X1163690Y642799D01*
X1163684Y642770D01*
X1163492Y642306D01*
X1163400Y641842D01*
Y641340D01*
X1163302Y640848D01*
Y411982D01*
X1163400Y411490D01*
Y410988D01*
X1163492Y410524D01*
X1163684Y410060D01*
X1163690Y410031D01*
X1163706Y410007D01*
X1164040Y409203D01*
X1164045Y409174D01*
X1164061Y409150D01*
X1164253Y408686D01*
X1164516Y408293D01*
X1164871Y407938D01*
X1165150Y407520D01*
X1184760Y387910D01*
X1185178Y387631D01*
X1185533Y387276D01*
X1185926Y387014D01*
X1186390Y386821D01*
X1186414Y386805D01*
X1186442Y386800D01*
X1187247Y386466D01*
X1187271Y386450D01*
X1187300Y386444D01*
X1187764Y386252D01*
X1188227Y386160D01*
X1188730D01*
X1189222Y386062D01*
X1242042D01*
Y377036D01*
X1242140Y376544D01*
Y376042D01*
X1242232Y375578D01*
X1242424Y375114D01*
X1242430Y375085D01*
X1242446Y375061D01*
X1242779Y374257D01*
X1242785Y374228D01*
X1242801Y374204D01*
X1242993Y373740D01*
X1243256Y373347D01*
X1243611Y372992D01*
X1243890Y372574D01*
X1245679Y370786D01*
X1246096Y370507D01*
X1246451Y370152D01*
X1246845Y369889D01*
X1247309Y369697D01*
X1247333Y369681D01*
X1247361Y369675D01*
X1248165Y369342D01*
X1248190Y369326D01*
X1248218Y369320D01*
X1248682Y369128D01*
X1249146Y369035D01*
X1249648D01*
X1250141Y368937D01*
X1360323D01*
X1360816Y369035D01*
X1361318D01*
X1361782Y369128D01*
X1361782Y369128D01*
X1361782D01*
X1362246Y369320D01*
X1362274Y369326D01*
X1362298Y369342D01*
X1363103Y369675D01*
X1363131Y369681D01*
X1363156Y369697D01*
X1363619Y369889D01*
X1363620Y369889D01*
X1364013Y370152D01*
X1364368Y370507D01*
X1364785Y370786D01*
X1368548Y374548D01*
X1368548Y374548D01*
X1372310Y378310D01*
X1372589Y378728D01*
X1372944Y379083D01*
X1373207Y379476D01*
X1373399Y379940D01*
X1373415Y379964D01*
X1373421Y379993D01*
X1373754Y380797D01*
X1373770Y380821D01*
X1373776Y380850D01*
X1373968Y381314D01*
X1373968Y381314D01*
Y381314D01*
X1374060Y381777D01*
Y382280D01*
X1374158Y382772D01*
Y442577D01*
X1419018D01*
X1423652Y437943D01*
Y388827D01*
X1399745Y364920D01*
X1398640Y363266D01*
X1398252Y361315D01*
Y259608D01*
X1379238D01*
Y348748D01*
X1379140Y349240D01*
X1379140Y349742D01*
X1379057Y350161D01*
X1379057Y350161D01*
Y350161D01*
X1378865Y350625D01*
X1378850Y350699D01*
X1378808Y350761D01*
X1378296Y351999D01*
X1378295Y351999D01*
X1378295Y351999D01*
X1377592Y352702D01*
X1376889Y353405D01*
X1376889Y353405D01*
X1376889Y353406D01*
X1375651Y353918D01*
X1375589Y353960D01*
X1375515Y353975D01*
X1375051Y354167D01*
X1375051D01*
X1375051Y354167D01*
X1374632Y354250D01*
X1374130Y354250D01*
X1373638Y354348D01*
X1251452D01*
X1250960Y354250D01*
X1250458D01*
X1249994Y354158D01*
X1249530Y353966D01*
X1249501Y353960D01*
X1249477Y353944D01*
X1248673Y353611D01*
X1248644Y353605D01*
X1248620Y353589D01*
X1248156Y353397D01*
X1247763Y353134D01*
X1247408Y352779D01*
X1246990Y352500D01*
X1242488Y347998D01*
X1168362D01*
Y364626D01*
X1166117D01*
Y369015D01*
X1168320D01*
Y395525D01*
X1143080D01*
Y369015D01*
X1145945D01*
Y364626D01*
X1144362D01*
Y347998D01*
X1111268D01*
Y382863D01*
X1111170Y383355D01*
X1111170Y383857D01*
X1111087Y384276D01*
X1111087Y384276D01*
Y384276D01*
X1110895Y384740D01*
X1110880Y384814D01*
X1110838Y384876D01*
X1110326Y386114D01*
X1110325Y386114D01*
X1110325Y386114D01*
X1109622Y386817D01*
X1108919Y387520D01*
X1108919Y387520D01*
X1108919Y387521D01*
X1107681Y388033D01*
X1107619Y388075D01*
X1107545Y388089D01*
X1107081Y388282D01*
X1107081D01*
X1107081Y388282D01*
X1106662Y388365D01*
X1106160Y388365D01*
X1105668Y388463D01*
X842512D01*
X842020Y388365D01*
X841518Y388365D01*
X841099Y388282D01*
X841099Y388282D01*
X841099D01*
X840635Y388089D01*
X840561Y388075D01*
X840499Y388033D01*
X839261Y387521D01*
X839261Y387520D01*
X839261Y387520D01*
X838558Y386817D01*
X837855Y386114D01*
X837855Y386114D01*
X837854Y386114D01*
X837342Y384876D01*
X837300Y384814D01*
X837285Y384740D01*
X837093Y384276D01*
Y384276D01*
X837093Y384276D01*
X837010Y383857D01*
X837010Y383355D01*
X836912Y382863D01*
Y259608D01*
X785388D01*
X785388Y1246612D01*
X1217912D01*
X1217912Y1154350D01*
D02*
G37*
G36*
X1493110Y816610D02*
X1494254D01*
Y812616D01*
X1493022D01*
Y788616D01*
X1511225D01*
X1512022Y785946D01*
X1512022D01*
Y761946D01*
X1534022D01*
Y785946D01*
X1534022D01*
Y788616D01*
X1534022D01*
Y797907D01*
X1536794Y799055D01*
X1541327Y794522D01*
X1543611Y792648D01*
X1546217Y791255D01*
X1549044Y790397D01*
X1551985Y790107D01*
X1560030D01*
Y784820D01*
X1587030D01*
Y787567D01*
X1597520D01*
X1600461Y787857D01*
X1603288Y788715D01*
X1605894Y790108D01*
X1607977Y787936D01*
X1607988Y787916D01*
X1609862Y785632D01*
X1610434Y785163D01*
Y772406D01*
X1587030D01*
Y779820D01*
X1560030D01*
Y759084D01*
X1552712Y751766D01*
X1493446D01*
Y775192D01*
X1493103Y777803D01*
X1492095Y780235D01*
X1490492Y782324D01*
X1483614Y789202D01*
X1481525Y790805D01*
X1479093Y791813D01*
X1476482Y792156D01*
X1475540D01*
Y806070D01*
Y815915D01*
X1475626Y816570D01*
Y817524D01*
X1493110D01*
Y816610D01*
D02*
G37*
G36*
X1150582Y1184818D02*
X1150975Y1184555D01*
X1157885Y1177645D01*
X1158148Y1177252D01*
X1158240Y1176788D01*
Y844568D01*
Y839470D01*
X1183550D01*
X1183640Y839452D01*
X1283970D01*
Y763772D01*
X1283887Y763353D01*
X1283468Y763270D01*
X1076960D01*
X1040130Y800100D01*
Y1184408D01*
X1040213Y1184827D01*
X1040632Y1184910D01*
X1150118D01*
X1150582Y1184818D01*
D02*
G37*
G36*
X1473274Y745858D02*
X1452098Y724682D01*
X1450495Y722593D01*
X1449487Y720161D01*
X1449352Y719131D01*
X1446443Y717571D01*
X1446153Y717573D01*
X1445752Y717819D01*
Y730136D01*
X1445409Y732747D01*
X1444401Y735179D01*
X1442798Y737268D01*
X1440106Y739960D01*
Y754984D01*
X1454240D01*
X1454895Y755070D01*
X1473274D01*
Y745858D01*
D02*
G37*
G36*
X1404620Y709930D02*
X1303020D01*
Y864870D01*
X1404620D01*
Y709930D01*
D02*
G37*
G36*
X1405666Y702265D02*
Y690918D01*
X1403300Y689387D01*
X1384088D01*
X1378287Y695188D01*
Y704832D01*
X1403022D01*
X1405666Y702265D01*
D02*
G37*
G36*
X1249492Y607631D02*
X1249802Y605282D01*
X1250708Y603093D01*
X1250776Y603005D01*
Y595329D01*
X1291764D01*
Y597545D01*
X1306131D01*
X1308742Y597889D01*
X1311175Y598896D01*
X1313264Y600499D01*
X1319042Y606278D01*
X1320645Y608367D01*
X1321653Y610799D01*
X1321996Y613410D01*
X1322926Y614470D01*
X1338195D01*
X1338206Y611470D01*
X1338082Y611368D01*
X1336208Y609084D01*
X1334815Y606478D01*
X1333957Y603651D01*
X1333667Y600710D01*
Y558396D01*
X1331496Y556396D01*
X1321760D01*
X1317876Y560281D01*
X1315787Y561884D01*
X1313354Y562891D01*
X1310744Y563235D01*
X1291764D01*
Y565451D01*
X1238076D01*
Y557775D01*
X1238008Y557687D01*
X1237102Y555498D01*
X1236792Y553148D01*
Y544386D01*
X1231945Y539539D01*
X1230502Y537659D01*
X1229596Y535470D01*
X1229286Y533120D01*
Y530822D01*
X1225364D01*
Y506822D01*
X1222966Y505368D01*
X1206276D01*
Y481368D01*
X1206276D01*
X1206364Y481292D01*
Y457292D01*
X1206276Y457108D01*
X1206276D01*
Y433108D01*
X1207582D01*
Y427990D01*
X1206484Y426738D01*
X1202708D01*
Y617202D01*
X1249492D01*
Y607631D01*
D02*
G37*
G36*
X1772392Y570003D02*
Y259608D01*
X1722138D01*
Y365760D01*
X1721750Y367711D01*
X1720645Y369365D01*
X1718991Y370470D01*
X1717040Y370858D01*
X1623060D01*
X1621109Y370470D01*
X1619455Y369365D01*
X1618350Y367711D01*
X1617962Y365760D01*
Y334028D01*
X1580435D01*
Y358060D01*
X1553925D01*
Y355526D01*
X1549624D01*
Y356832D01*
X1532908D01*
Y392412D01*
X1637030D01*
X1638981Y392800D01*
X1640635Y393905D01*
X1648255Y401525D01*
X1649360Y403179D01*
X1649748Y405130D01*
Y433658D01*
X1650855Y435120D01*
X1651918Y435926D01*
X1652322Y436094D01*
X1669958D01*
Y458094D01*
X1660170D01*
X1659689Y459253D01*
X1658247Y461133D01*
X1656367Y462575D01*
X1654178Y463482D01*
X1651828Y463792D01*
X1639758D01*
Y482270D01*
X1639448Y484619D01*
X1638784Y486224D01*
Y489720D01*
X1638372Y491788D01*
X1637201Y493541D01*
X1635448Y494712D01*
X1633380Y495124D01*
X1627980D01*
X1625912Y494712D01*
X1624330Y493655D01*
X1622748Y494712D01*
X1620680Y495124D01*
X1615280D01*
X1613212Y494712D01*
X1611630Y493655D01*
X1610048Y494712D01*
X1607980Y495124D01*
X1602580D01*
X1600512Y494712D01*
X1598930Y493655D01*
X1597348Y494712D01*
X1595280Y495124D01*
X1589880D01*
X1587812Y494712D01*
X1586059Y493541D01*
X1584888Y491788D01*
X1584476Y489720D01*
Y486224D01*
X1583812Y484619D01*
X1583502Y482270D01*
Y480792D01*
X1578140D01*
Y505488D01*
X1578405Y505665D01*
X1585735Y512995D01*
X1586840Y514649D01*
X1587228Y516600D01*
Y520885D01*
X1589880Y523416D01*
X1595280D01*
X1597348Y523828D01*
X1597955Y524233D01*
X1598341Y524310D01*
X1599065Y524794D01*
X1600512Y523828D01*
X1602580Y523416D01*
X1607980D01*
X1610048Y523828D01*
X1611801Y524999D01*
X1612973Y526752D01*
X1613384Y528820D01*
Y532970D01*
X1613805Y533986D01*
X1614106Y536270D01*
Y547352D01*
X1620699D01*
X1622702Y544352D01*
X1622576Y543720D01*
Y528820D01*
X1622988Y526752D01*
X1624159Y524999D01*
X1625912Y523828D01*
X1627980Y523416D01*
X1633380D01*
X1635448Y523828D01*
X1637201Y524999D01*
X1638372Y526752D01*
X1638784Y528820D01*
Y543720D01*
X1638658Y544352D01*
X1640661Y547352D01*
X1648013D01*
X1649964Y547740D01*
X1651618Y548845D01*
X1652065Y549292D01*
X1652613Y549608D01*
X1653224Y549772D01*
X1653856D01*
X1654467Y549608D01*
X1655015Y549292D01*
X1655462Y548845D01*
X1657116Y547740D01*
X1659066Y547352D01*
X1687870D01*
X1688524Y547482D01*
X1689189Y547526D01*
X1689491Y547674D01*
X1689821Y547740D01*
X1690375Y548111D01*
X1690973Y548405D01*
X1691195Y548658D01*
X1691474Y548845D01*
X1691845Y549400D01*
X1692146Y549742D01*
X1692705Y550302D01*
X1693253Y550618D01*
X1693864Y550782D01*
X1694496D01*
X1695107Y550618D01*
X1695655Y550302D01*
X1696214Y549742D01*
X1696515Y549400D01*
X1696886Y548845D01*
X1697165Y548658D01*
X1697387Y548405D01*
X1697985Y548111D01*
X1698539Y547740D01*
X1698869Y547674D01*
X1699171Y547526D01*
X1699836Y547482D01*
X1700490Y547352D01*
X1743710D01*
X1745661Y547740D01*
X1747315Y548845D01*
X1769621Y571151D01*
X1772392Y570003D01*
D02*
G37*
G36*
X1527810Y549910D02*
X1540920D01*
X1541985Y548845D01*
X1543639Y547740D01*
X1545590Y547352D01*
X1596390D01*
Y529020D01*
X1582130D01*
Y516600D01*
X1574800Y509270D01*
X1543100D01*
Y510020D01*
X1517600D01*
Y509270D01*
X1503680D01*
Y547370D01*
X1363813D01*
Y600710D01*
X1363523Y603651D01*
X1362710Y606330D01*
Y632460D01*
X1527810D01*
Y549910D01*
D02*
G37*
G36*
X1541149Y504560D02*
X1543100Y504172D01*
X1551140D01*
Y480540D01*
X1555562D01*
Y476401D01*
X1555872Y474052D01*
X1556779Y471862D01*
X1558221Y469982D01*
X1562907Y465296D01*
X1562907Y465296D01*
X1564787Y463853D01*
X1566977Y462946D01*
X1569326Y462637D01*
X1587894D01*
X1590243Y462946D01*
X1592433Y463853D01*
X1594313Y465296D01*
X1598999Y469982D01*
X1598999Y469982D01*
X1599433Y470548D01*
X1600512Y469827D01*
X1602580Y469416D01*
X1607980D01*
X1610048Y469827D01*
X1611630Y470885D01*
X1613212Y469827D01*
X1615280Y469416D01*
X1620680D01*
X1621602Y468659D01*
Y458094D01*
X1619288D01*
Y441192D01*
X1618712Y441077D01*
X1618125Y441058D01*
X1615391Y440417D01*
X1615011Y440245D01*
X1614603Y440163D01*
X1614114Y439837D01*
X1613580Y439594D01*
X1613295Y439290D01*
X1612949Y439058D01*
X1604438Y430548D01*
X1599534D01*
X1598599Y430362D01*
X1575534D01*
X1575534Y430362D01*
X1572864D01*
X1572864Y430362D01*
X1548864D01*
X1548864Y430362D01*
X1546160D01*
X1546160Y430362D01*
X1523095D01*
X1522160Y430548D01*
X1499888D01*
Y502182D01*
X1500300Y502714D01*
X1502888Y504330D01*
X1503680Y504172D01*
X1517600D01*
X1519551Y504560D01*
X1520093Y504922D01*
X1540607D01*
X1541149Y504560D01*
D02*
G37*
G36*
X1331496Y534396D02*
X1333667Y532396D01*
Y509510D01*
Y502753D01*
X1331000Y501950D01*
Y501950D01*
X1308288D01*
Y525780D01*
X1307978Y528130D01*
X1307071Y530319D01*
X1305629Y532199D01*
X1307674Y534396D01*
X1331496D01*
D02*
G37*
G36*
X1297477Y484398D02*
X1297477Y484398D01*
X1299357Y482955D01*
X1301547Y482048D01*
X1303896Y481739D01*
X1306000D01*
Y475950D01*
X1331000D01*
Y484632D01*
X1334000Y485077D01*
X1334575Y483182D01*
X1335968Y480576D01*
X1336000Y480537D01*
Y475950D01*
X1341001D01*
X1342732Y475025D01*
X1345560Y474167D01*
X1348500Y473877D01*
X1351440Y474167D01*
X1354268Y475025D01*
X1355999Y475950D01*
X1358882D01*
Y463568D01*
X1271544D01*
Y485102D01*
X1273103Y487456D01*
X1293396D01*
Y487456D01*
X1294120Y487756D01*
X1297477Y484398D01*
D02*
G37*
G36*
X1018502Y1184183D02*
X1018895Y1183920D01*
X1028427Y1174388D01*
X1029970Y1172845D01*
Y755015D01*
X1149350D01*
Y408807D01*
X1149258Y408343D01*
X1148995Y407950D01*
X1148435Y407390D01*
X1148042Y407127D01*
X1147578Y407035D01*
X963162D01*
X962743Y407118D01*
X962660Y407537D01*
Y587357D01*
Y592455D01*
X853942D01*
X853523Y592538D01*
X853440Y592957D01*
Y596265D01*
Y1183773D01*
X853523Y1184192D01*
X853942Y1184275D01*
X1018038D01*
X1018502Y1184183D01*
D02*
G37*
G36*
X1253225Y653045D02*
X1253225Y653045D01*
X1258215Y648055D01*
X1258478Y647662D01*
X1258570Y647198D01*
Y644164D01*
Y622300D01*
X1197610D01*
Y617202D01*
Y426738D01*
Y421640D01*
X1210188D01*
X1210241Y421571D01*
X1212121Y420129D01*
X1214311Y419222D01*
X1216660Y418912D01*
X1219009Y419222D01*
X1221199Y420129D01*
X1223079Y421571D01*
X1223132Y421640D01*
X1225550D01*
X1237018Y433108D01*
X1247276D01*
Y448446D01*
X1257300Y458470D01*
X1358882D01*
Y448177D01*
X1358980Y447684D01*
X1358980Y447182D01*
X1359172Y446718D01*
X1359270Y446226D01*
X1359312Y446164D01*
X1359428Y445882D01*
X1359428Y445882D01*
Y445882D01*
X1359666Y445527D01*
X1359741Y445344D01*
X1359783Y445282D01*
X1359923Y445142D01*
X1360533Y444229D01*
X1360533Y444229D01*
X1360533Y444228D01*
X1361447Y443618D01*
X1361587Y443478D01*
X1361649Y443436D01*
X1361832Y443361D01*
X1362187Y443123D01*
X1362187Y443123D01*
X1362187Y443123D01*
X1362469Y443007D01*
X1362531Y442965D01*
X1363023Y442867D01*
X1363487Y442675D01*
X1363989Y442675D01*
X1364482Y442577D01*
X1369060D01*
Y382772D01*
X1368968Y382308D01*
X1368705Y381915D01*
X1364943Y378153D01*
X1361181Y374390D01*
X1360787Y374128D01*
X1360323Y374035D01*
X1250141D01*
X1249677Y374128D01*
X1249284Y374391D01*
X1247495Y376179D01*
X1247232Y376572D01*
X1247140Y377036D01*
Y386062D01*
Y391160D01*
X1189222D01*
X1188758Y391252D01*
X1188365Y391515D01*
X1168755Y411125D01*
X1168492Y411518D01*
X1168400Y411982D01*
Y640848D01*
X1168492Y641312D01*
X1168755Y641705D01*
X1182015Y654965D01*
X1182408Y655228D01*
X1182872Y655320D01*
X1250950D01*
X1253225Y653045D01*
D02*
G37*
G36*
X1494790Y425450D02*
X1522160D01*
Y425264D01*
X1546160D01*
Y425264D01*
X1548864D01*
Y425264D01*
X1572864D01*
Y425264D01*
X1575534D01*
Y425264D01*
X1599534D01*
Y425450D01*
X1606550D01*
X1616553Y435453D01*
X1619288Y436094D01*
Y436094D01*
X1643288D01*
X1644650Y433658D01*
Y405130D01*
X1637030Y397510D01*
X1527810D01*
Y356832D01*
X1527624D01*
Y332832D01*
X1527810D01*
Y328930D01*
X1621790D01*
X1623060Y330200D01*
Y365760D01*
X1717040D01*
Y259608D01*
X1403350D01*
Y361315D01*
X1428750Y386715D01*
Y440055D01*
X1421130Y447675D01*
X1364482D01*
X1364420Y447717D01*
X1364138Y447833D01*
X1364022Y448115D01*
X1363980Y448177D01*
Y458470D01*
Y527685D01*
X1494790D01*
Y425450D01*
D02*
G37*
G36*
X1106087Y383282D02*
X1106170Y382863D01*
Y347998D01*
Y342900D01*
X1144362D01*
Y342626D01*
X1168362D01*
Y342900D01*
X1244600D01*
X1250595Y348895D01*
X1250988Y349158D01*
X1251452Y349250D01*
X1373638D01*
X1374057Y349167D01*
X1374140Y348748D01*
Y259608D01*
X842010D01*
Y382863D01*
X842093Y383282D01*
X842512Y383365D01*
X1105668D01*
X1106087Y383282D01*
D02*
G37*
%LPC*%
G36*
X1334098Y1235630D02*
X1330362D01*
X1326697Y1234901D01*
X1323244Y1233471D01*
X1320137Y1231395D01*
X1317495Y1228753D01*
X1315419Y1225646D01*
X1313989Y1222193D01*
X1313260Y1218528D01*
Y1214792D01*
X1313989Y1211127D01*
X1315419Y1207674D01*
X1317495Y1204567D01*
X1320137Y1201925D01*
X1323244Y1199849D01*
X1326697Y1198419D01*
X1330362Y1197690D01*
X1334098D01*
X1337763Y1198419D01*
X1341216Y1199849D01*
X1344323Y1201925D01*
X1346965Y1204567D01*
X1349041Y1207674D01*
X1350471Y1211127D01*
X1351200Y1214792D01*
Y1218528D01*
X1350471Y1222193D01*
X1349041Y1225646D01*
X1346965Y1228753D01*
X1344323Y1231395D01*
X1341216Y1233471D01*
X1337763Y1234901D01*
X1334098Y1235630D01*
D02*
G37*
G36*
X1278810Y1184830D02*
X1228170D01*
Y1179732D01*
Y1154528D01*
Y1149430D01*
X1278810D01*
Y1184830D01*
D02*
G37*
%LPD*%
G36*
X1336276Y1229999D02*
X1338801Y1228953D01*
X1341073Y1227435D01*
X1343005Y1225503D01*
X1344523Y1223231D01*
X1345569Y1220706D01*
X1346102Y1218026D01*
Y1215294D01*
X1345569Y1212614D01*
X1344523Y1210089D01*
X1343005Y1207817D01*
X1341073Y1205885D01*
X1338801Y1204367D01*
X1336276Y1203321D01*
X1333596Y1202788D01*
X1330864D01*
X1328184Y1203321D01*
X1325659Y1204367D01*
X1323387Y1205885D01*
X1321455Y1207817D01*
X1319937Y1210089D01*
X1318891Y1212614D01*
X1318358Y1215294D01*
Y1218026D01*
X1318891Y1220706D01*
X1319937Y1223231D01*
X1321455Y1225503D01*
X1323387Y1227435D01*
X1325659Y1228953D01*
X1328184Y1229999D01*
X1330864Y1230532D01*
X1333596D01*
X1336276Y1229999D01*
D02*
G37*
G36*
X1273712Y1154528D02*
X1233268D01*
Y1179732D01*
X1273712D01*
Y1154528D01*
D02*
G37*
%LPC*%
G36*
X1709928Y993736D02*
X1708658D01*
X1705032Y993259D01*
X1701653Y991859D01*
X1698752Y989632D01*
X1696525Y986731D01*
X1695125Y983352D01*
X1694648Y979726D01*
X1695125Y976100D01*
X1696525Y972721D01*
X1698752Y969819D01*
X1701653Y967593D01*
X1705032Y966193D01*
X1708658Y965716D01*
X1709928D01*
X1713554Y966193D01*
X1716933Y967593D01*
X1719834Y969819D01*
X1722061Y972721D01*
X1723461Y976100D01*
X1723938Y979726D01*
X1723461Y983352D01*
X1722061Y986731D01*
X1719834Y989632D01*
X1716933Y991859D01*
X1713554Y993259D01*
X1709928Y993736D01*
D02*
G37*
G36*
Y895390D02*
X1708658D01*
X1705032Y894912D01*
X1701653Y893513D01*
X1698752Y891286D01*
X1696525Y888385D01*
X1695125Y885006D01*
X1694648Y881380D01*
X1695125Y877754D01*
X1696525Y874375D01*
X1698752Y871473D01*
X1701653Y869247D01*
X1705032Y867848D01*
X1708658Y867370D01*
X1709928D01*
X1713554Y867848D01*
X1716933Y869247D01*
X1719834Y871473D01*
X1722061Y874375D01*
X1723461Y877754D01*
X1723938Y881380D01*
X1723461Y885006D01*
X1722061Y888385D01*
X1719834Y891286D01*
X1716933Y893513D01*
X1713554Y894912D01*
X1709928Y895390D01*
D02*
G37*
%LPD*%
G36*
X1712223Y988292D02*
X1714362Y987406D01*
X1716198Y985997D01*
X1717608Y984160D01*
X1718494Y982021D01*
X1718796Y979726D01*
X1718494Y977431D01*
X1717608Y975292D01*
X1716199Y973456D01*
X1714362Y972046D01*
X1712223Y971160D01*
X1709594Y970814D01*
X1708992D01*
X1706363Y971160D01*
X1704224Y972046D01*
X1702388Y973455D01*
X1700978Y975292D01*
X1700092Y977431D01*
X1699790Y979726D01*
X1700092Y982021D01*
X1700978Y984160D01*
X1702387Y985996D01*
X1704224Y987406D01*
X1706363Y988292D01*
X1708992Y988638D01*
X1709594D01*
X1712223Y988292D01*
D02*
G37*
G36*
Y889946D02*
X1714362Y889060D01*
X1716198Y887651D01*
X1717608Y885814D01*
X1718494Y883675D01*
X1718796Y881380D01*
X1718494Y879085D01*
X1717608Y876946D01*
X1716199Y875109D01*
X1714362Y873700D01*
X1712223Y872814D01*
X1709594Y872468D01*
X1708992D01*
X1706363Y872814D01*
X1704224Y873700D01*
X1702388Y875109D01*
X1700978Y876946D01*
X1700092Y879085D01*
X1699790Y881380D01*
X1700092Y883675D01*
X1700978Y885814D01*
X1702387Y887651D01*
X1704224Y889060D01*
X1706363Y889946D01*
X1708992Y890292D01*
X1709594D01*
X1712223Y889946D01*
D02*
G37*
%LPC*%
G36*
X1081351Y1093390D02*
X1077609D01*
X1075773Y1093025D01*
X1074430Y1092758D01*
X1074430D01*
X1073938Y1092660D01*
X1073474Y1092468D01*
X1073474D01*
X1070944Y1091420D01*
X1070944Y1091420D01*
X1070480Y1091228D01*
X1070063Y1090949D01*
X1070063Y1090949D01*
X1069389Y1090499D01*
X1067368Y1089148D01*
X1064722Y1086502D01*
X1062643Y1083390D01*
X1062450Y1082926D01*
X1062450Y1082926D01*
X1061402Y1080396D01*
Y1080396D01*
X1061210Y1079932D01*
X1061112Y1079440D01*
X1061112Y1079440D01*
X1060751Y1077624D01*
X1060480Y1076261D01*
Y1075759D01*
Y1073021D01*
Y1072519D01*
X1060845Y1070683D01*
X1061112Y1069340D01*
Y1069340D01*
X1061210Y1068848D01*
X1061402Y1068384D01*
Y1068384D01*
X1062450Y1065854D01*
X1062450Y1065854D01*
X1062643Y1065390D01*
X1062921Y1064973D01*
X1062921Y1064973D01*
X1063371Y1064299D01*
X1064722Y1062278D01*
X1067368Y1059632D01*
X1070480Y1057552D01*
X1070944Y1057360D01*
X1070944Y1057360D01*
X1073474Y1056312D01*
X1073474D01*
X1073938Y1056120D01*
X1074430Y1056022D01*
X1074430Y1056022D01*
X1076246Y1055661D01*
X1077609Y1055390D01*
X1081351D01*
X1083187Y1055755D01*
X1084530Y1056022D01*
X1084530D01*
X1085022Y1056120D01*
X1085486Y1056312D01*
X1085486D01*
X1088016Y1057360D01*
X1088016Y1057360D01*
X1088480Y1057552D01*
X1088897Y1057831D01*
X1088897Y1057831D01*
X1089570Y1058281D01*
X1091592Y1059632D01*
X1094238Y1062278D01*
X1096318Y1065390D01*
X1096510Y1065854D01*
X1096510Y1065854D01*
X1097558Y1068384D01*
Y1068384D01*
X1097750Y1068848D01*
X1097848Y1069340D01*
X1097848Y1069340D01*
X1098209Y1071156D01*
X1098480Y1072519D01*
Y1076261D01*
X1098115Y1078097D01*
X1097848Y1079440D01*
Y1079440D01*
X1097750Y1079932D01*
X1097558Y1080396D01*
Y1080396D01*
X1096510Y1082926D01*
X1096510Y1082926D01*
X1096318Y1083390D01*
X1096039Y1083807D01*
X1096039Y1083807D01*
X1095589Y1084481D01*
X1094238Y1086502D01*
X1091592Y1089148D01*
X1088480Y1091228D01*
X1088016Y1091420D01*
X1088016Y1091420D01*
X1085486Y1092468D01*
X1085486D01*
X1085022Y1092660D01*
X1084530Y1092758D01*
X1084530Y1092758D01*
X1082714Y1093119D01*
X1081351Y1093390D01*
D02*
G37*
%LPD*%
G36*
X1081720Y1088119D02*
X1081720Y1088119D01*
X1083535Y1087758D01*
X1083535D01*
X1083535Y1087758D01*
X1083535D01*
X1086065Y1086710D01*
X1088342Y1085188D01*
X1090278Y1083252D01*
X1091350Y1081648D01*
X1091350Y1081648D01*
X1091350Y1081648D01*
X1091800Y1080975D01*
X1091800Y1080975D01*
X1092848Y1078445D01*
X1092848Y1078445D01*
Y1078445D01*
X1093115Y1077102D01*
X1093115Y1077102D01*
Y1077102D01*
X1093382Y1075759D01*
Y1073021D01*
X1093209Y1072150D01*
X1093209Y1072150D01*
X1092848Y1070335D01*
Y1070335D01*
X1092848Y1070335D01*
Y1070335D01*
X1091800Y1067805D01*
X1090278Y1065528D01*
X1088342Y1063592D01*
X1086738Y1062520D01*
X1086738Y1062520D01*
X1086738Y1062520D01*
X1086065Y1062070D01*
X1086065Y1062070D01*
X1083535Y1061022D01*
X1083535Y1061022D01*
X1083535D01*
X1082192Y1060755D01*
X1082192Y1060755D01*
X1082192D01*
X1080849Y1060488D01*
X1078111D01*
X1077240Y1060661D01*
X1077240Y1060661D01*
X1075425Y1061022D01*
X1075425D01*
X1075425Y1061022D01*
X1075425D01*
X1072895Y1062070D01*
X1070618Y1063592D01*
X1068682Y1065528D01*
X1067610Y1067132D01*
X1067610Y1067132D01*
X1067610Y1067132D01*
X1067160Y1067805D01*
X1067160Y1067805D01*
X1066112Y1070335D01*
X1066112Y1070335D01*
Y1070335D01*
X1065845Y1071678D01*
X1065845Y1071678D01*
Y1071678D01*
X1065578Y1073021D01*
Y1075759D01*
X1065751Y1076630D01*
X1065751Y1076630D01*
X1066112Y1078445D01*
Y1078445D01*
X1066112Y1078445D01*
Y1078445D01*
X1067160Y1080975D01*
X1068682Y1083252D01*
X1070618Y1085188D01*
X1072222Y1086260D01*
X1072222Y1086260D01*
X1072222Y1086260D01*
X1072895Y1086710D01*
X1072895Y1086710D01*
X1075425Y1087758D01*
X1075425Y1087758D01*
X1075425D01*
X1076768Y1088025D01*
X1076768Y1088025D01*
X1076768D01*
X1078111Y1088292D01*
X1080849D01*
X1081720Y1088119D01*
D02*
G37*
%LPC*%
G36*
X888351Y1093390D02*
X884609D01*
X882773Y1093025D01*
X881430Y1092758D01*
X881430D01*
X880938Y1092660D01*
X880474Y1092468D01*
X880474D01*
X877944Y1091420D01*
X877944Y1091420D01*
X877480Y1091228D01*
X877063Y1090949D01*
X877063Y1090949D01*
X876389Y1090499D01*
X874368Y1089148D01*
X871722Y1086502D01*
X869642Y1083390D01*
X869450Y1082926D01*
X869450Y1082926D01*
X868402Y1080396D01*
Y1080396D01*
X868210Y1079932D01*
X868112Y1079440D01*
X868112Y1079440D01*
X867751Y1077624D01*
X867480Y1076261D01*
Y1075759D01*
Y1073021D01*
Y1072519D01*
X867845Y1070683D01*
X868112Y1069340D01*
Y1069340D01*
X868210Y1068848D01*
X868402Y1068384D01*
Y1068384D01*
X869450Y1065854D01*
X869450Y1065854D01*
X869642Y1065390D01*
X869921Y1064973D01*
X869921Y1064973D01*
X870371Y1064299D01*
X871722Y1062278D01*
X874368Y1059632D01*
X877480Y1057552D01*
X877944Y1057360D01*
X877944Y1057360D01*
X880474Y1056312D01*
X880474D01*
X880938Y1056120D01*
X881430Y1056022D01*
X881430Y1056022D01*
X883246Y1055661D01*
X884609Y1055390D01*
X888351D01*
X890187Y1055755D01*
X891530Y1056022D01*
X891530D01*
X892022Y1056120D01*
X892486Y1056312D01*
X892486D01*
X895016Y1057360D01*
X895016Y1057360D01*
X895480Y1057552D01*
X895897Y1057831D01*
X895897Y1057831D01*
X896571Y1058281D01*
X898592Y1059632D01*
X901238Y1062278D01*
X903317Y1065390D01*
X903510Y1065854D01*
X903510Y1065854D01*
X904558Y1068384D01*
Y1068384D01*
X904750Y1068848D01*
X904848Y1069340D01*
X904848Y1069340D01*
X905209Y1071156D01*
X905480Y1072519D01*
Y1076261D01*
X905115Y1078097D01*
X904848Y1079440D01*
Y1079440D01*
X904750Y1079932D01*
X904558Y1080396D01*
Y1080396D01*
X903510Y1082926D01*
X903510Y1082926D01*
X903317Y1083390D01*
X903039Y1083807D01*
X903039Y1083807D01*
X902589Y1084481D01*
X901238Y1086502D01*
X898592Y1089148D01*
X895480Y1091228D01*
X895016Y1091420D01*
X895016Y1091420D01*
X892486Y1092468D01*
X892486D01*
X892022Y1092660D01*
X891530Y1092758D01*
X891530Y1092758D01*
X889714Y1093119D01*
X888351Y1093390D01*
D02*
G37*
G36*
X1081351Y537190D02*
X1077609D01*
X1075773Y536825D01*
X1074430Y536558D01*
X1074430D01*
X1073938Y536460D01*
X1073474Y536268D01*
X1073474D01*
X1070944Y535220D01*
X1070944Y535220D01*
X1070480Y535028D01*
X1070063Y534749D01*
X1070063Y534749D01*
X1069389Y534299D01*
X1067368Y532948D01*
X1064722Y530302D01*
X1062643Y527190D01*
X1062450Y526726D01*
X1062450Y526726D01*
X1061402Y524196D01*
Y524196D01*
X1061210Y523732D01*
X1061112Y523240D01*
X1061112Y523240D01*
X1060751Y521424D01*
X1060480Y520061D01*
Y519559D01*
Y516821D01*
Y516319D01*
X1060845Y514483D01*
X1061112Y513140D01*
Y513140D01*
X1061210Y512648D01*
X1061402Y512184D01*
Y512184D01*
X1062450Y509654D01*
X1062450Y509654D01*
X1062643Y509190D01*
X1062921Y508773D01*
X1062921Y508773D01*
X1063371Y508100D01*
X1064722Y506078D01*
X1067368Y503432D01*
X1070480Y501352D01*
X1070944Y501160D01*
X1070944Y501160D01*
X1073474Y500112D01*
X1073474D01*
X1073938Y499920D01*
X1074430Y499822D01*
X1074430Y499822D01*
X1076246Y499461D01*
X1077609Y499190D01*
X1081351D01*
X1083187Y499555D01*
X1084530Y499822D01*
X1084530D01*
X1085022Y499920D01*
X1085486Y500112D01*
X1085486D01*
X1088016Y501160D01*
X1088016Y501160D01*
X1088480Y501352D01*
X1088897Y501631D01*
X1088897Y501631D01*
X1089570Y502081D01*
X1091592Y503432D01*
X1094238Y506078D01*
X1096318Y509190D01*
X1096510Y509654D01*
X1096510Y509654D01*
X1097558Y512184D01*
Y512184D01*
X1097750Y512648D01*
X1097848Y513140D01*
X1097848Y513140D01*
X1098209Y514956D01*
X1098480Y516319D01*
Y520061D01*
X1098115Y521897D01*
X1097848Y523240D01*
Y523240D01*
X1097750Y523732D01*
X1097558Y524196D01*
Y524196D01*
X1096510Y526726D01*
X1096510Y526726D01*
X1096318Y527190D01*
X1096039Y527607D01*
X1096039Y527607D01*
X1095589Y528280D01*
X1094238Y530302D01*
X1091592Y532948D01*
X1088480Y535028D01*
X1088016Y535220D01*
X1088016Y535220D01*
X1085486Y536268D01*
X1085486D01*
X1085022Y536460D01*
X1084530Y536558D01*
X1084530Y536558D01*
X1082714Y536919D01*
X1081351Y537190D01*
D02*
G37*
%LPD*%
G36*
X888720Y1088119D02*
X888720Y1088119D01*
X890535Y1087758D01*
X890535D01*
X890535Y1087758D01*
X890535D01*
X893065Y1086710D01*
X895342Y1085188D01*
X897278Y1083252D01*
X898350Y1081648D01*
X898350Y1081648D01*
X898350Y1081648D01*
X898800Y1080975D01*
X898800Y1080975D01*
X899848Y1078445D01*
X899848Y1078445D01*
Y1078445D01*
X900115Y1077102D01*
X900115Y1077102D01*
Y1077102D01*
X900382Y1075759D01*
Y1073021D01*
X900209Y1072150D01*
X900209Y1072150D01*
X899848Y1070335D01*
Y1070335D01*
X899848Y1070335D01*
Y1070335D01*
X898800Y1067805D01*
X897278Y1065528D01*
X895342Y1063592D01*
X893738Y1062520D01*
X893738Y1062520D01*
X893738Y1062520D01*
X893065Y1062070D01*
X893065Y1062070D01*
X890535Y1061022D01*
X890535Y1061022D01*
X890535D01*
X889192Y1060755D01*
X889192Y1060755D01*
X889192D01*
X887849Y1060488D01*
X885111D01*
X884240Y1060661D01*
X884240Y1060661D01*
X882425Y1061022D01*
X882425D01*
X882425Y1061022D01*
X882425D01*
X879895Y1062070D01*
X877618Y1063592D01*
X875682Y1065528D01*
X874610Y1067132D01*
X874610Y1067132D01*
X874610Y1067132D01*
X874160Y1067805D01*
X874160Y1067805D01*
X873112Y1070335D01*
X873112Y1070335D01*
Y1070335D01*
X872845Y1071678D01*
X872845Y1071678D01*
Y1071678D01*
X872578Y1073021D01*
Y1075759D01*
X872751Y1076630D01*
X872751Y1076630D01*
X873112Y1078445D01*
Y1078445D01*
X873112Y1078445D01*
Y1078445D01*
X874160Y1080975D01*
X875682Y1083252D01*
X877618Y1085188D01*
X879222Y1086260D01*
X879222Y1086260D01*
X879222Y1086260D01*
X879895Y1086710D01*
X879895Y1086710D01*
X882425Y1087758D01*
X882425Y1087758D01*
X882425D01*
X883768Y1088025D01*
X883768Y1088025D01*
X883768D01*
X885111Y1088292D01*
X887849D01*
X888720Y1088119D01*
D02*
G37*
G36*
X1081720Y531919D02*
X1081720Y531919D01*
X1083535Y531558D01*
X1083535D01*
X1083535Y531558D01*
X1083535D01*
X1086065Y530510D01*
X1088342Y528988D01*
X1090278Y527052D01*
X1091350Y525448D01*
X1091350Y525448D01*
X1091350Y525448D01*
X1091800Y524775D01*
X1091800Y524775D01*
X1092848Y522245D01*
X1092848Y522245D01*
Y522245D01*
X1093115Y520902D01*
X1093115Y520902D01*
Y520902D01*
X1093382Y519559D01*
Y516821D01*
X1093209Y515950D01*
X1093209Y515950D01*
X1092848Y514135D01*
Y514135D01*
X1092848Y514135D01*
Y514135D01*
X1091800Y511605D01*
X1090278Y509328D01*
X1088342Y507392D01*
X1086738Y506320D01*
X1086738Y506320D01*
X1086738Y506320D01*
X1086065Y505870D01*
X1086065Y505870D01*
X1083535Y504822D01*
X1083535Y504822D01*
X1083535D01*
X1082192Y504555D01*
X1082192Y504555D01*
X1082192D01*
X1080849Y504288D01*
X1078111D01*
X1077240Y504461D01*
X1077240Y504461D01*
X1075425Y504822D01*
X1075425D01*
X1075425Y504822D01*
X1075425D01*
X1072895Y505870D01*
X1070618Y507392D01*
X1068682Y509328D01*
X1067610Y510932D01*
X1067610Y510932D01*
X1067610Y510932D01*
X1067160Y511605D01*
X1067160Y511605D01*
X1066112Y514135D01*
X1066112Y514135D01*
Y514135D01*
X1065845Y515478D01*
X1065845Y515478D01*
Y515478D01*
X1065578Y516821D01*
Y519559D01*
X1065751Y520430D01*
X1065751Y520430D01*
X1066112Y522245D01*
Y522245D01*
X1066112Y522245D01*
Y522245D01*
X1067160Y524775D01*
X1068682Y527052D01*
X1070618Y528988D01*
X1072222Y530060D01*
X1072222Y530060D01*
X1072222Y530060D01*
X1072895Y530510D01*
X1072895Y530510D01*
X1075425Y531558D01*
X1075425Y531558D01*
X1075425D01*
X1076768Y531825D01*
X1076768Y531825D01*
X1076768D01*
X1078111Y532092D01*
X1080849D01*
X1081720Y531919D01*
D02*
G37*
%LPC*%
G36*
X1644650Y335955D02*
X1641024Y335477D01*
X1637645Y334078D01*
X1634743Y331852D01*
X1632517Y328950D01*
X1631118Y325571D01*
X1630640Y321945D01*
Y320675D01*
X1631118Y317049D01*
X1632517Y313670D01*
X1634743Y310769D01*
X1637645Y308542D01*
X1641024Y307143D01*
X1644650Y306665D01*
X1648276Y307143D01*
X1651655Y308542D01*
X1654556Y310769D01*
X1656783Y313670D01*
X1658183Y317049D01*
X1658660Y320675D01*
Y321945D01*
X1658183Y325571D01*
X1656783Y328950D01*
X1654556Y331852D01*
X1651655Y334078D01*
X1648276Y335477D01*
X1644650Y335955D01*
D02*
G37*
G36*
X1446530D02*
X1442904Y335477D01*
X1439525Y334078D01*
X1436624Y331852D01*
X1434397Y328950D01*
X1432997Y325571D01*
X1432520Y321945D01*
Y320675D01*
X1432997Y317049D01*
X1434397Y313670D01*
X1436624Y310769D01*
X1439525Y308542D01*
X1442904Y307143D01*
X1446530Y306665D01*
X1450156Y307143D01*
X1453535Y308542D01*
X1456436Y310769D01*
X1458663Y313670D01*
X1460063Y317049D01*
X1460540Y320675D01*
Y321945D01*
X1460063Y325571D01*
X1458663Y328950D01*
X1456436Y331852D01*
X1453535Y334078D01*
X1450156Y335477D01*
X1446530Y335955D01*
D02*
G37*
%LPD*%
G36*
X1646945Y330511D02*
X1649084Y329625D01*
X1650921Y328216D01*
X1652330Y326379D01*
X1653216Y324240D01*
X1653562Y321611D01*
Y321009D01*
X1653216Y318380D01*
X1652330Y316241D01*
X1650921Y314405D01*
X1649084Y312995D01*
X1646945Y312109D01*
X1644650Y311807D01*
X1642355Y312109D01*
X1640216Y312995D01*
X1638380Y314404D01*
X1636970Y316241D01*
X1636084Y318380D01*
X1635738Y321009D01*
Y321611D01*
X1636084Y324240D01*
X1636970Y326379D01*
X1638379Y328215D01*
X1640216Y329625D01*
X1642355Y330511D01*
X1644650Y330813D01*
X1646945Y330511D01*
D02*
G37*
G36*
X1448825D02*
X1450964Y329625D01*
X1452800Y328216D01*
X1454210Y326379D01*
X1455096Y324240D01*
X1455442Y321611D01*
Y321009D01*
X1455096Y318380D01*
X1454210Y316241D01*
X1452801Y314405D01*
X1450964Y312995D01*
X1448825Y312109D01*
X1446530Y311807D01*
X1444235Y312109D01*
X1442096Y312995D01*
X1440260Y314404D01*
X1438850Y316241D01*
X1437964Y318380D01*
X1437618Y321009D01*
Y321611D01*
X1437964Y324240D01*
X1438850Y326379D01*
X1440259Y328215D01*
X1442096Y329625D01*
X1444235Y330511D01*
X1446530Y330813D01*
X1448825Y330511D01*
D02*
G37*
%LPC*%
G36*
X1060450Y335955D02*
X1056824Y335477D01*
X1053445Y334078D01*
X1052913Y333669D01*
X1052913D01*
X1052509Y333359D01*
X1050544Y331852D01*
X1050135Y331319D01*
X1050135Y331319D01*
X1048726Y329482D01*
D01*
X1048317Y328950D01*
X1046917Y325571D01*
X1046440Y321945D01*
Y321611D01*
Y321009D01*
Y320675D01*
X1046917Y317049D01*
X1048317Y313670D01*
X1048726Y313138D01*
Y313138D01*
X1049036Y312734D01*
X1050544Y310769D01*
X1051076Y310360D01*
X1051076Y310360D01*
X1052913Y308951D01*
D01*
X1053445Y308542D01*
X1056824Y307143D01*
X1060450Y306665D01*
X1064076Y307143D01*
X1067455Y308542D01*
X1067987Y308951D01*
X1067987D01*
X1068391Y309261D01*
X1070357Y310769D01*
X1070765Y311301D01*
X1070765Y311301D01*
X1072174Y313138D01*
D01*
X1072583Y313670D01*
X1073982Y317049D01*
X1074460Y320675D01*
Y321945D01*
X1073982Y325571D01*
X1072583Y328950D01*
X1072174Y329482D01*
Y329482D01*
X1071864Y329886D01*
X1070357Y331852D01*
X1069824Y332260D01*
X1069824Y332260D01*
X1067987Y333669D01*
D01*
X1067455Y334078D01*
X1064076Y335477D01*
X1060450Y335955D01*
D02*
G37*
G36*
X952500D02*
X948874Y335477D01*
X945495Y334078D01*
X944963Y333669D01*
X944963D01*
X944559Y333359D01*
X942594Y331852D01*
X942185Y331319D01*
X942185Y331319D01*
X940776Y329482D01*
D01*
X940367Y328950D01*
X938968Y325571D01*
X938490Y321945D01*
Y321611D01*
Y321009D01*
Y320675D01*
X938968Y317049D01*
X940367Y313670D01*
X940776Y313138D01*
Y313138D01*
X941086Y312734D01*
X942594Y310769D01*
X943126Y310360D01*
X943126Y310360D01*
X944963Y308951D01*
D01*
X945495Y308542D01*
X948874Y307143D01*
X952500Y306665D01*
X956126Y307143D01*
X959505Y308542D01*
X960037Y308951D01*
X960037D01*
X960441Y309261D01*
X962406Y310769D01*
X962815Y311301D01*
X962815Y311301D01*
X964224Y313138D01*
D01*
X964633Y313670D01*
X966032Y317049D01*
X966510Y320675D01*
Y321945D01*
X966032Y325571D01*
X964633Y328950D01*
X964224Y329482D01*
Y329482D01*
X963914Y329886D01*
X962406Y331852D01*
X961874Y332260D01*
X961874Y332260D01*
X960037Y333669D01*
D01*
X959505Y334078D01*
X956126Y335477D01*
X952500Y335955D01*
D02*
G37*
%LPD*%
G36*
X1062745Y330511D02*
X1064884Y329625D01*
X1064884Y329625D01*
X1064884Y329625D01*
X1066721Y328216D01*
X1066721Y328215D01*
D01*
X1067820Y326783D01*
X1067820Y326783D01*
Y326783D01*
X1068130Y326379D01*
X1068130Y326379D01*
D01*
X1069016Y324240D01*
X1069362Y321611D01*
Y321009D01*
X1069016Y318380D01*
X1068130Y316241D01*
X1068130Y316241D01*
X1068130Y316241D01*
X1066721Y314405D01*
X1066721Y314405D01*
D01*
X1065288Y313305D01*
X1065288Y313305D01*
X1065288D01*
X1064884Y312995D01*
X1064884Y312995D01*
D01*
X1062745Y312109D01*
X1060450Y311807D01*
X1058155Y312109D01*
X1056016Y312995D01*
X1056016Y312995D01*
X1056016Y312995D01*
X1054180Y314404D01*
X1054180Y314405D01*
D01*
X1053080Y315837D01*
X1053080Y315837D01*
Y315837D01*
X1052770Y316241D01*
X1052770Y316241D01*
D01*
X1051884Y318380D01*
X1051538Y321009D01*
D01*
Y321611D01*
D01*
X1051884Y324240D01*
X1052770Y326379D01*
X1052770Y326379D01*
X1052770Y326379D01*
X1054179Y328215D01*
X1054180Y328215D01*
D01*
X1055612Y329315D01*
X1055612Y329315D01*
X1055612D01*
X1056016Y329625D01*
X1056016Y329625D01*
D01*
X1058155Y330511D01*
X1060450Y330813D01*
X1062745Y330511D01*
D02*
G37*
G36*
X954795D02*
X956934Y329625D01*
X956934Y329625D01*
X956934Y329625D01*
X958771Y328216D01*
X958771Y328215D01*
D01*
X959870Y326783D01*
X959870Y326783D01*
Y326783D01*
X960180Y326379D01*
X960180Y326379D01*
D01*
X961066Y324240D01*
X961412Y321611D01*
Y321009D01*
X961066Y318380D01*
X960180Y316241D01*
X960180Y316241D01*
X960180Y316241D01*
X958771Y314405D01*
X958771Y314405D01*
D01*
X957338Y313305D01*
X957338Y313305D01*
X957338D01*
X956934Y312995D01*
X956934Y312995D01*
D01*
X954795Y312109D01*
X952500Y311807D01*
X950205Y312109D01*
X948066Y312995D01*
X948066Y312995D01*
X948066Y312995D01*
X946229Y314404D01*
X946229Y314405D01*
D01*
X945130Y315837D01*
X945130Y315837D01*
Y315837D01*
X944820Y316241D01*
X944820Y316241D01*
D01*
X943934Y318380D01*
X943588Y321009D01*
D01*
Y321611D01*
D01*
X943934Y324240D01*
X944820Y326379D01*
X944820Y326379D01*
X944820Y326379D01*
X946229Y328215D01*
X946229Y328215D01*
D01*
X947662Y329315D01*
X947662Y329315D01*
X947662D01*
X948066Y329625D01*
X948066Y329625D01*
D01*
X950205Y330511D01*
X952500Y330813D01*
X954795Y330511D01*
D02*
G37*
D18*
X1695450Y583140D02*
D03*
Y641140D02*
D03*
D19*
X1461350Y402590D02*
D03*
X1403350D02*
D03*
X1395670Y1078230D02*
D03*
X1324670D02*
D03*
X1395670Y988060D02*
D03*
X1324670D02*
D03*
D20*
X1391170Y892810D02*
D03*
X1329170D02*
D03*
X1637260Y736600D02*
D03*
X1699260D02*
D03*
D21*
X1477044Y850680D02*
D03*
Y869680D02*
D03*
X1449104Y850680D02*
D03*
Y869680D02*
D03*
X1602623Y698142D02*
D03*
Y679142D02*
D03*
X1631288Y447094D02*
D03*
Y428094D02*
D03*
X1657958Y447094D02*
D03*
Y428094D02*
D03*
X1614204Y564584D02*
D03*
Y583584D02*
D03*
X1156362Y334626D02*
D03*
Y353626D02*
D03*
X1281396Y498456D02*
D03*
Y517456D02*
D03*
X1258536Y498456D02*
D03*
Y517456D02*
D03*
X1271304Y652164D02*
D03*
Y633164D02*
D03*
X1299244Y652164D02*
D03*
Y633164D02*
D03*
X1319496Y526396D02*
D03*
Y545396D02*
D03*
X1560864Y436264D02*
D03*
Y417264D02*
D03*
X1587534Y436264D02*
D03*
Y417264D02*
D03*
X1534160Y436264D02*
D03*
Y417264D02*
D03*
X1560864Y583584D02*
D03*
Y564584D02*
D03*
X1587534Y583584D02*
D03*
Y564584D02*
D03*
X1602078Y1131300D02*
D03*
Y1150300D02*
D03*
D22*
X1694377Y831272D02*
D03*
X1675377D02*
D03*
X1523110Y828610D02*
D03*
X1504110D02*
D03*
X1416666Y702918D02*
D03*
X1435666D02*
D03*
X1504022Y773946D02*
D03*
X1523022D02*
D03*
X1504022Y800616D02*
D03*
X1523022D02*
D03*
X1236276Y445108D02*
D03*
X1217276D02*
D03*
X1217364Y469292D02*
D03*
X1236364D02*
D03*
X1236276Y493368D02*
D03*
X1217276D02*
D03*
X1217364Y518822D02*
D03*
X1236364D02*
D03*
X1260544Y473102D02*
D03*
X1279544D02*
D03*
X1519624Y344832D02*
D03*
X1538624D02*
D03*
X1594140Y1037556D02*
D03*
X1575140D02*
D03*
X1594140Y1062956D02*
D03*
X1575140D02*
D03*
X1594026Y1087728D02*
D03*
X1575026D02*
D03*
D23*
X1661940Y805180D02*
D03*
X1695940D02*
D03*
D24*
X1573530Y802320D02*
D03*
Y762320D02*
D03*
X1513840Y860110D02*
D03*
Y900110D02*
D03*
X1209040Y676590D02*
D03*
Y636590D02*
D03*
D25*
X1601200Y964520D02*
D03*
X1600200Y858520D02*
D03*
X1428750Y480060D02*
D03*
X1429750Y586060D02*
D03*
X1305830Y310560D02*
D03*
X1306830Y416560D02*
D03*
D26*
X1573530Y677672D02*
D03*
Y713740D02*
D03*
X1567180Y345440D02*
D03*
Y381508D02*
D03*
X1629410Y1114552D02*
D03*
Y1150620D02*
D03*
D27*
X1454490Y748320D02*
D03*
Y765320D02*
D03*
Y782320D02*
D03*
Y799320D02*
D03*
Y816320D02*
D03*
D28*
X1644650Y584980D02*
D03*
Y618980D02*
D03*
X1329690Y631970D02*
D03*
Y665970D02*
D03*
D29*
X1155700Y382270D02*
D03*
X1119632D02*
D03*
D30*
X1223010Y332750D02*
D03*
Y365750D02*
D03*
X1189990Y332750D02*
D03*
Y365750D02*
D03*
X1243330Y636280D02*
D03*
Y669280D02*
D03*
X1564640Y527040D02*
D03*
Y494040D02*
D03*
D31*
X1476920Y1226820D02*
D03*
X1433920D02*
D03*
D32*
X1318500Y488950D02*
D03*
X1348500D02*
D03*
D33*
X1283970Y553148D02*
D03*
X1271270D02*
D03*
X1258570D02*
D03*
X1245870D02*
D03*
Y607631D02*
D03*
X1258570D02*
D03*
X1271270D02*
D03*
X1283970D02*
D03*
D34*
X1530350Y493270D02*
D03*
Y525270D02*
D03*
D35*
X1592580Y482270D02*
D03*
X1605280D02*
D03*
X1617980D02*
D03*
X1630680D02*
D03*
Y536270D02*
D03*
X1617980D02*
D03*
X1605280D02*
D03*
X1592580D02*
D03*
D36*
X1470660Y1032240D02*
D03*
X1521460D02*
D03*
D37*
X1496060Y1134740D02*
D03*
D38*
X1447800Y988900D02*
D03*
Y969440D02*
D03*
D39*
X1576070Y1153690D02*
D03*
Y1120890D02*
D03*
D56*
X1264920Y580390D02*
D03*
D75*
X1358190Y782320D02*
D03*
D76*
X1611630Y509270D02*
D03*
D77*
X1573530Y677672D02*
X1574265Y678407D01*
X1601888D01*
X1602623Y679142D01*
X1620520Y768178D02*
Y796290D01*
X1573530Y762320D02*
X1614662D01*
X1620520Y768178D01*
X1483360Y741680D02*
X1556890D01*
X1573530Y758320D01*
Y762320D01*
X1454400Y748320D02*
X1454490D01*
X1454150Y734060D02*
Y748070D01*
X1454400Y748320D01*
X1447834Y870680D02*
X1448834Y869680D01*
X1449104D01*
X1459230Y717550D02*
X1483360Y741680D01*
X1327900Y891540D02*
X1329170Y892810D01*
X1454740Y782070D02*
X1476482D01*
X1513840Y900110D02*
Y934720D01*
X1416666Y702918D02*
Y815340D01*
X1454240Y799570D02*
X1454490Y799320D01*
X1432436Y799570D02*
X1454240D01*
X1503680Y773604D02*
X1504022Y773946D01*
X1503680Y758190D02*
Y773604D01*
X1634260Y733600D02*
X1637260Y736600D01*
X1435666Y702918D02*
Y730136D01*
X1454240Y765070D02*
X1454490Y765320D01*
X1435878Y765070D02*
X1454240D01*
X1454490Y816320D02*
X1465290D01*
X1471398Y827610D02*
X1504110D01*
X1523022Y773946D02*
Y800616D01*
X1504340Y800934D02*
Y828380D01*
X1454490Y782320D02*
X1454740Y782070D01*
X1504022Y800616D02*
X1504340Y800934D01*
X1504110Y828610D02*
X1504340Y828380D01*
X1465540Y821752D02*
X1471398Y827610D01*
X1465540Y816570D02*
Y821752D01*
X1465290Y816320D02*
X1465540Y816570D01*
X1430020Y759212D02*
X1435878Y765070D01*
X1430020Y735782D02*
Y759212D01*
Y735782D02*
X1435666Y730136D01*
X1416666Y815340D02*
X1432436Y799570D01*
X1483360Y741680D02*
Y775192D01*
X1476482Y782070D02*
X1483360Y775192D01*
X1416666Y815340D02*
Y885806D01*
X1419860Y889000D01*
X1280206Y472440D02*
X1309370D01*
X1279544Y473102D02*
X1280206Y472440D01*
X1179830Y628452D02*
X1185688Y634310D01*
X1179830Y413528D02*
Y628452D01*
X1206759Y634310D02*
X1209040Y636590D01*
X1185688Y634310D02*
X1206759D01*
X1539232Y345440D02*
X1567180D01*
X1538624Y344832D02*
X1539232Y345440D01*
X1530350Y493270D02*
X1531620Y492000D01*
X1657958Y386742D02*
Y428094D01*
Y386742D02*
X1658620Y386080D01*
X1328496Y633164D02*
X1329690Y631970D01*
X1299244Y633164D02*
X1328496D01*
X1348500Y600950D02*
Y627758D01*
X1342642Y633616D02*
X1348500Y627758D01*
X1329690Y633616D02*
X1342642D01*
X1272304Y633164D02*
X1299244D01*
X1348500Y600950D02*
X1348740Y600710D01*
X1185688Y407670D02*
X1205230D01*
X1122252Y361886D02*
X1123458Y360680D01*
X1134110D01*
X1119632Y382270D02*
X1122252Y379650D01*
Y361886D02*
Y379650D01*
X1459230Y683260D02*
Y717550D01*
X1271270Y633130D02*
X1271304Y633164D01*
X1271270Y617220D02*
Y633130D01*
X1369608Y500270D02*
X1408540D01*
X1428750Y480060D01*
X1445260Y669290D02*
X1459230Y683260D01*
X1156031Y353957D02*
X1156362Y353626D01*
X1156031Y353957D02*
Y381939D01*
X1155700Y382270D02*
X1156031Y381939D01*
X1179830Y413528D02*
X1185688Y407670D01*
X1299480Y652164D02*
X1300480Y653164D01*
X1299244Y652164D02*
X1299480D01*
X1210310Y677860D02*
Y726440D01*
X1209040Y676590D02*
X1210310Y677860D01*
X1244600Y670550D02*
Y713740D01*
X1243330Y669280D02*
X1244600Y670550D01*
Y713740D02*
X1254760Y723900D01*
X1319496Y526396D02*
X1319530Y526362D01*
X1323400Y989330D02*
X1324670Y988060D01*
X1594140Y1037556D02*
X1594174Y1037590D01*
X1318496Y545396D02*
X1319496D01*
X1310744Y553148D02*
X1318496Y545396D01*
X1286176Y553148D02*
X1310744D01*
X1306131Y607631D02*
X1311910Y613410D01*
X1283970Y607631D02*
X1306131D01*
X1447800Y988900D02*
Y1069340D01*
X1507982Y988900D02*
X1521210Y1002128D01*
X1447800Y988900D02*
X1507982D01*
X1521210Y1031990D02*
X1521460Y1032240D01*
X1521210Y1002128D02*
Y1031990D01*
X1438910Y1078230D02*
X1447800Y1069340D01*
X1607936Y1114552D02*
X1629410D01*
X1602078Y1120410D02*
X1607936Y1114552D01*
X1602078Y1120410D02*
Y1131300D01*
X1557020Y1089386D02*
Y1147832D01*
X1562878Y1153690D01*
X1576070D01*
X1543324Y1075690D02*
X1557020Y1089386D01*
X1470660Y1032240D02*
Y1047990D01*
X1441450Y1075690D02*
X1543324D01*
X1485360Y1062690D02*
X1548708D01*
X1548974Y1062956D01*
X1575140D01*
X1470660Y1047990D02*
X1485360Y1062690D01*
X1576070Y1153690D02*
X1576520Y1153240D01*
X1576785D02*
X1579725Y1150300D01*
X1576520Y1153240D02*
X1576785D01*
X1575140Y1062956D02*
Y1087614D01*
X1575574Y1088224D02*
Y1120440D01*
X1576024Y1120890D02*
X1576070D01*
X1575574Y1120440D02*
X1576024Y1120890D01*
X1579725Y1150300D02*
X1601078D01*
X1395670Y1078230D02*
X1438910D01*
D78*
X1604252Y699770D02*
X1692312D01*
X1602623Y698142D02*
X1604252Y699770D01*
X1572728Y802640D02*
X1597520D01*
X1620520Y796290D02*
Y838520D01*
X1600520Y858520D02*
X1620520Y838520D01*
X1600200Y858520D02*
X1600520D01*
X1570188Y805180D02*
X1572728Y802640D01*
X1551985Y805180D02*
X1570188D01*
X1528555Y828610D02*
X1551985Y805180D01*
X1523110Y828610D02*
X1528555D01*
X1419020Y969440D02*
X1447800D01*
X1418590Y969010D02*
X1419020Y969440D01*
X1297940Y407670D02*
X1306830Y416560D01*
X1205230Y407670D02*
X1297940D01*
X1348740Y509510D02*
X1360368D01*
X1348740D02*
Y600710D01*
Y489190D02*
Y509510D01*
X1348500Y488950D02*
X1348740Y489190D01*
X1360368Y509510D02*
X1369608Y500270D01*
X1417320Y669290D02*
X1445260D01*
D79*
X1358190Y686864D02*
Y782320D01*
Y686864D02*
X1375764Y669290D01*
X1417320D01*
X1502030Y1225370D02*
X1505660Y1221740D01*
X1496060Y1134740D02*
X1506930Y1145610D01*
Y1223010D01*
X1478370Y1225370D02*
X1502030D01*
X1476920Y1226820D02*
X1478370Y1225370D01*
D80*
X1303896Y490817D02*
X1316633D01*
X1318500Y488950D01*
X1299210Y495503D02*
Y525780D01*
X1290320Y534670D02*
X1299210Y525780D01*
Y495503D02*
X1303896Y490817D01*
X1528625Y526995D02*
X1530350Y525270D01*
X1518920Y553720D02*
Y571500D01*
X1504360Y586060D02*
X1518920Y571500D01*
X1429750Y586060D02*
X1504360D01*
X1564640Y527040D02*
X1566967Y529367D01*
X1569326Y471715D02*
X1587894D01*
X1564640Y476401D02*
Y494040D01*
Y476401D02*
X1569326Y471715D01*
X1592580Y476401D02*
Y482270D01*
X1587894Y471715D02*
X1592580Y476401D01*
X1651828Y452224D02*
Y454714D01*
Y452224D02*
X1656958Y447094D01*
X1657958D01*
X1632558Y454714D02*
X1651828D01*
X1630680Y456356D02*
X1632558Y454478D01*
X1630680Y447702D02*
Y482270D01*
Y447702D02*
X1631288Y447094D01*
X1216660Y427990D02*
Y444492D01*
X1217276Y445108D01*
X1243330Y636280D02*
X1246050Y633560D01*
X1258570Y607631D02*
Y621353D01*
X1246363Y633560D02*
X1258570Y621353D01*
X1246050Y633560D02*
X1246363D01*
X1236276Y445108D02*
X1236320Y445152D01*
Y469248D01*
X1236364Y469292D01*
X1258536Y498456D02*
X1281396D01*
X1258536Y480456D02*
Y498456D01*
Y480456D02*
X1258544Y480448D01*
Y475102D02*
Y480448D01*
Y475102D02*
X1260544Y473102D01*
X1258536Y517456D02*
X1281396D01*
X1236276Y493368D02*
X1236320Y493412D01*
Y518778D01*
X1236364Y518822D01*
X1217276Y493368D02*
X1217320Y493324D01*
Y469336D02*
Y493324D01*
Y469336D02*
X1217364Y469292D01*
X1236364Y518822D02*
X1237634Y517552D01*
X1245870Y540626D02*
Y553148D01*
X1238364Y533120D02*
X1245870Y540626D01*
X1238364Y518282D02*
Y533120D01*
X1237634Y517552D02*
X1238364Y518282D01*
X1258536Y517456D02*
X1258553D01*
Y553131D02*
X1258570Y553148D01*
X1258553Y517456D02*
Y553131D01*
X1271270Y539356D02*
Y553148D01*
Y539356D02*
X1275956Y534670D01*
X1290320D01*
X1213540Y636280D02*
X1243330D01*
D81*
X1605280Y536270D02*
Y560070D01*
X1271270Y607631D02*
Y617220D01*
D82*
X1079480Y518190D02*
D03*
X886480D02*
D03*
X1079480Y1074390D02*
D03*
X886480D02*
D03*
D83*
Y1162290D02*
D03*
Y433290D02*
D03*
X1079480D02*
D03*
Y1162290D02*
D03*
D84*
X952500Y321310D02*
D03*
X1060450D02*
D03*
X1446530D02*
D03*
X1644650D02*
D03*
D85*
X977900D02*
D03*
X1085850D02*
D03*
X1471930D02*
D03*
X1670050D02*
D03*
D86*
X1665530Y1223010D02*
D03*
X1506930D02*
D03*
D87*
X1558290Y283210D02*
D03*
X891540Y292100D02*
D03*
X1708150Y1054100D02*
D03*
D88*
X1383030Y1216660D02*
D03*
X1332230D02*
D03*
D89*
X1244600Y819950D02*
D03*
Y869950D02*
D03*
D90*
X1202690Y1129030D02*
D03*
D91*
X1253490Y1167130D02*
D03*
Y1103630D02*
D03*
D92*
X1749290Y1223550D02*
D03*
X1748790Y283210D02*
D03*
X808500Y282750D02*
D03*
X808450Y1223300D02*
D03*
D93*
X1592130Y502770D02*
D03*
Y515770D02*
D03*
X1605130Y502770D02*
D03*
Y515770D02*
D03*
X1618130Y502770D02*
D03*
Y515770D02*
D03*
X1631130Y502770D02*
D03*
Y515770D02*
D03*
X1720850Y1244600D02*
D03*
X1504950Y711200D02*
D03*
X1544320D02*
D03*
X1530350Y687070D02*
D03*
X1490980D02*
D03*
X1504950Y665480D02*
D03*
X1544320D02*
D03*
X1530350Y645160D02*
D03*
X1490980Y644586D02*
D03*
X1451610Y643965D02*
D03*
X1412240D02*
D03*
X1372870Y643890D02*
D03*
X1678940Y1244600D02*
D03*
X1700530Y1223010D02*
D03*
X1623060Y1225550D02*
D03*
X1557020Y1224280D02*
D03*
X1180000Y1200000D02*
D03*
Y1120000D02*
D03*
Y720000D02*
D03*
X1160000Y680000D02*
D03*
Y600000D02*
D03*
Y520000D02*
D03*
X1140000Y1200000D02*
D03*
X1120000Y360000D02*
D03*
X1100000Y1200000D02*
D03*
X1060000D02*
D03*
X1020000D02*
D03*
X980000D02*
D03*
X940000D02*
D03*
Y560000D02*
D03*
X920000Y520000D02*
D03*
X940000Y480000D02*
D03*
X920000Y440000D02*
D03*
X940000Y400000D02*
D03*
X900000Y1200000D02*
D03*
Y560000D02*
D03*
Y480000D02*
D03*
Y400000D02*
D03*
X860000Y1200000D02*
D03*
X840000Y1160000D02*
D03*
Y1080000D02*
D03*
Y1000000D02*
D03*
Y920000D02*
D03*
Y840000D02*
D03*
Y760000D02*
D03*
Y680000D02*
D03*
Y600000D02*
D03*
X860000Y560000D02*
D03*
X840000Y520000D02*
D03*
X860000Y480000D02*
D03*
X840000Y440000D02*
D03*
X860000Y400000D02*
D03*
X800000Y1160000D02*
D03*
X820000Y1120000D02*
D03*
X800000Y1080000D02*
D03*
X820000Y1040000D02*
D03*
X800000Y1000000D02*
D03*
X820000Y960000D02*
D03*
X800000Y920000D02*
D03*
X820000Y880000D02*
D03*
X800000Y840000D02*
D03*
X820000Y800000D02*
D03*
X800000Y760000D02*
D03*
X820000Y720000D02*
D03*
X800000Y680000D02*
D03*
X820000Y640000D02*
D03*
X800000Y600000D02*
D03*
X820000Y560000D02*
D03*
X800000Y520000D02*
D03*
X820000Y480000D02*
D03*
X800000Y440000D02*
D03*
X820000Y400000D02*
D03*
X800000Y360000D02*
D03*
X820000Y320000D02*
D03*
X1763158Y297578D02*
D03*
Y268842D02*
D03*
X1769110Y283210D02*
D03*
X1661160Y836930D02*
D03*
X1638300Y810260D02*
D03*
X1661160Y826770D02*
D03*
X1638300Y796290D02*
D03*
X1597520Y802640D02*
D03*
X1454150Y734060D02*
D03*
X1372235Y873760D02*
D03*
X1322705D02*
D03*
X1397000Y697230D02*
D03*
X1380490D02*
D03*
X1294130Y836930D02*
D03*
Y820632D02*
D03*
Y804333D02*
D03*
X1530350Y1187450D02*
D03*
X1483360D02*
D03*
X1557020D02*
D03*
X1451610D02*
D03*
X1428750Y1021080D02*
D03*
Y1056005D02*
D03*
Y1090930D02*
D03*
Y1125855D02*
D03*
Y1160780D02*
D03*
X1653540Y547370D02*
D03*
Y522817D02*
D03*
Y498263D02*
D03*
Y473710D02*
D03*
X1670050Y461010D02*
D03*
Y486410D02*
D03*
Y511810D02*
D03*
Y537210D02*
D03*
X1502410Y445770D02*
D03*
Y473075D02*
D03*
Y500380D02*
D03*
X1309370Y472440D02*
D03*
X1643380Y1170396D02*
D03*
Y1140975D02*
D03*
Y1111553D02*
D03*
X1621790Y1079246D02*
D03*
Y1048258D02*
D03*
X1297940Y889635D02*
D03*
Y905510D02*
D03*
X1336040Y697230D02*
D03*
X1323340D02*
D03*
X1300480Y675640D02*
D03*
X1309370Y568960D02*
D03*
Y595630D02*
D03*
Y582295D02*
D03*
X1333240Y582083D02*
D03*
Y558377D02*
D03*
Y534670D02*
D03*
X1224280Y546100D02*
D03*
Y562293D02*
D03*
Y578485D02*
D03*
X1376680Y422910D02*
D03*
X1389380Y383540D02*
D03*
Y355283D02*
D03*
X1619250Y608330D02*
D03*
X1607820D02*
D03*
X1593850D02*
D03*
X1555750D02*
D03*
X1565910D02*
D03*
X1581150D02*
D03*
X1694180Y548380D02*
D03*
X1651000Y650240D02*
D03*
X1638300D02*
D03*
X1529080Y459740D02*
D03*
X1539240D02*
D03*
X1565910D02*
D03*
X1555750D02*
D03*
X1582420D02*
D03*
X1333240Y605790D02*
D03*
X1216660Y383540D02*
D03*
Y427990D02*
D03*
X1068070Y398780D02*
D03*
X1040130D02*
D03*
X1009650D02*
D03*
X1294130Y755438D02*
D03*
X1247140Y753110D02*
D03*
X1233170D02*
D03*
X1297940Y980440D02*
D03*
Y996950D02*
D03*
X1210310Y753110D02*
D03*
X1540510Y620000D02*
D03*
Y600000D02*
D03*
Y580000D02*
D03*
X1606550Y736600D02*
D03*
X1694180Y499106D02*
D03*
Y474468D02*
D03*
Y523743D02*
D03*
Y400557D02*
D03*
Y375920D02*
D03*
Y425194D02*
D03*
Y449831D02*
D03*
X1658620Y386080D02*
D03*
X1503680Y758190D02*
D03*
X1288627Y675640D02*
D03*
X1264920D02*
D03*
X1276773D02*
D03*
X1643380Y1082131D02*
D03*
Y1052710D02*
D03*
X1621790Y1017270D02*
D03*
X1643380Y1199818D02*
D03*
X1680210Y1200150D02*
D03*
X1720850D02*
D03*
X1297940Y873760D02*
D03*
X1397000D02*
D03*
X1347470D02*
D03*
X1183640Y383540D02*
D03*
X1297940Y1069340D02*
D03*
X1621790Y1094740D02*
D03*
X1229360Y383540D02*
D03*
X1196340D02*
D03*
X1376680D02*
D03*
Y403225D02*
D03*
X1294130Y788035D02*
D03*
Y771737D02*
D03*
Y739140D02*
D03*
X1320800Y605790D02*
D03*
X1325880Y510540D02*
D03*
X1224280Y610870D02*
D03*
Y594678D02*
D03*
X1134110Y360680D02*
D03*
X1643380Y1023288D02*
D03*
X1471930Y895350D02*
D03*
X1483360D02*
D03*
X1389380Y270510D02*
D03*
Y298768D02*
D03*
Y327025D02*
D03*
X1763658Y1209182D02*
D03*
X1749290Y1203230D02*
D03*
X1734922Y1209182D02*
D03*
X1728970Y1223550D02*
D03*
X1734922Y1237918D02*
D03*
X1749290Y1243870D02*
D03*
X1763658Y1237918D02*
D03*
X1769610Y1223550D02*
D03*
X1748790Y262890D02*
D03*
X1734422Y268842D02*
D03*
X1728470Y283210D02*
D03*
X1734422Y297578D02*
D03*
X1748790Y303530D02*
D03*
X822868Y268382D02*
D03*
X808500Y262430D02*
D03*
X794132Y268382D02*
D03*
X788180Y282750D02*
D03*
X794132Y297118D02*
D03*
X808500Y303070D02*
D03*
X822868Y297118D02*
D03*
X828820Y282750D02*
D03*
X991870Y372110D02*
D03*
X1592580Y459740D02*
D03*
X1313180Y510540D02*
D03*
X1254760Y723900D02*
D03*
X1297940Y1087120D02*
D03*
X1513840Y934720D02*
D03*
X1455420Y895350D02*
D03*
X1443990D02*
D03*
X1621790Y1032764D02*
D03*
Y1063752D02*
D03*
X1311910Y613410D02*
D03*
X828770Y1223300D02*
D03*
X822818Y1237668D02*
D03*
X808450Y1243620D02*
D03*
X794082Y1237668D02*
D03*
X788130Y1223300D02*
D03*
X794082Y1208932D02*
D03*
X808450Y1202980D02*
D03*
X822818Y1208932D02*
D03*
D94*
X1709293Y906780D02*
D03*
Y1005126D02*
D03*
D95*
Y881380D02*
D03*
Y979726D02*
D03*
M02*
