G04*
G04 #@! TF.GenerationSoftware,Altium Limited,Altium Designer,25.0.2 (28)*
G04*
G04 Layer_Color=255*
%FSLAX44Y44*%
%MOMM*%
G71*
G04*
G04 #@! TF.SameCoordinates,DAB4E7CD-7955-4A2D-9074-8748ECBEB7C7*
G04*
G04*
G04 #@! TF.FilePolarity,Positive*
G04*
G01*
G75*
%ADD18R,2.0000X4.0000*%
%ADD19R,4.0000X2.0000*%
%ADD20R,4.0000X1.6000*%
%ADD21R,1.4000X1.2000*%
%ADD22R,1.2000X1.4000*%
%ADD23R,2.5000X1.5000*%
%ADD24R,1.7000X2.5000*%
%ADD25R,10.0000X6.0000*%
%ADD26R,1.6510X1.5240*%
%ADD27R,3.2100X1.0500*%
%ADD28R,1.5000X2.5000*%
%ADD29R,1.5240X1.6510*%
%ADD30R,1.7000X1.7000*%
G04:AMPARAMS|DCode=31|XSize=1.34mm|YSize=3.29mm|CornerRadius=0.1675mm|HoleSize=0mm|Usage=FLASHONLY|Rotation=180.000|XOffset=0mm|YOffset=0mm|HoleType=Round|Shape=RoundedRectangle|*
%AMROUNDEDRECTD31*
21,1,1.3400,2.9550,0,0,180.0*
21,1,1.0050,3.2900,0,0,180.0*
1,1,0.3350,-0.5025,1.4775*
1,1,0.3350,0.5025,1.4775*
1,1,0.3350,0.5025,-1.4775*
1,1,0.3350,-0.5025,-1.4775*
%
%ADD31ROUNDEDRECTD31*%
%ADD32R,1.5000X1.6000*%
%ADD33R,0.5588X1.4605*%
%ADD34R,1.5500X2.3500*%
G04:AMPARAMS|DCode=35|XSize=1.55mm|YSize=0.6mm|CornerRadius=0.03mm|HoleSize=0mm|Usage=FLASHONLY|Rotation=90.000|XOffset=0mm|YOffset=0mm|HoleType=Round|Shape=RoundedRectangle|*
%AMROUNDEDRECTD35*
21,1,1.5500,0.5400,0,0,90.0*
21,1,1.4900,0.6000,0,0,90.0*
1,1,0.0600,0.2700,0.7450*
1,1,0.0600,0.2700,-0.7450*
1,1,0.0600,-0.2700,-0.7450*
1,1,0.0600,-0.2700,0.7450*
%
%ADD35ROUNDEDRECTD35*%
%ADD36R,1.0500X4.2000*%
%ADD37R,10.0000X9.0000*%
%ADD38R,1.4700X1.2850*%
%ADD39R,1.1430X0.9100*%
%ADD56R,3.5052X2.6162*%
%ADD75R,8.4600X10.5300*%
%ADD76R,4.9000X2.9500*%
%ADD82C,3.2000*%
%ADD83C,2.4000*%
%ADD84O,1.7780X1.9050*%
%ADD85R,1.7780X1.7780*%
%ADD86C,1.8900*%
%ADD87C,4.0000*%
%ADD88C,2.7940*%
%ADD89R,5.0000X3.0000*%
%ADD90R,2.5400X4.0640*%
%ADD91R,4.0640X2.5400*%
%ADD92C,5.0000*%
%ADD93C,0.5000*%
%ADD94R,1.7780X1.7780*%
%ADD95O,1.9050X1.7780*%
D18*
X1695450Y583140D02*
D03*
Y641140D02*
D03*
D19*
X1461350Y402590D02*
D03*
X1403350D02*
D03*
X1395670Y1078230D02*
D03*
X1324670D02*
D03*
X1395670Y988060D02*
D03*
X1324670D02*
D03*
D20*
X1391170Y892810D02*
D03*
X1329170D02*
D03*
X1637260Y736600D02*
D03*
X1699260D02*
D03*
D21*
X1477044Y850680D02*
D03*
Y869680D02*
D03*
X1449104Y850680D02*
D03*
Y869680D02*
D03*
X1602623Y698142D02*
D03*
Y679142D02*
D03*
X1631288Y447094D02*
D03*
Y428094D02*
D03*
X1657958Y447094D02*
D03*
Y428094D02*
D03*
X1614204Y564584D02*
D03*
Y583584D02*
D03*
X1156362Y334626D02*
D03*
Y353626D02*
D03*
X1281396Y498456D02*
D03*
Y517456D02*
D03*
X1258536Y498456D02*
D03*
Y517456D02*
D03*
X1271304Y652164D02*
D03*
Y633164D02*
D03*
X1299244Y652164D02*
D03*
Y633164D02*
D03*
X1319496Y526396D02*
D03*
Y545396D02*
D03*
X1560864Y436264D02*
D03*
Y417264D02*
D03*
X1587534Y436264D02*
D03*
Y417264D02*
D03*
X1534160Y436264D02*
D03*
Y417264D02*
D03*
X1560864Y583584D02*
D03*
Y564584D02*
D03*
X1587534Y583584D02*
D03*
Y564584D02*
D03*
X1602078Y1131300D02*
D03*
Y1150300D02*
D03*
D22*
X1694377Y831272D02*
D03*
X1675377D02*
D03*
X1523110Y828610D02*
D03*
X1504110D02*
D03*
X1416666Y702918D02*
D03*
X1435666D02*
D03*
X1504022Y773946D02*
D03*
X1523022D02*
D03*
X1504022Y800616D02*
D03*
X1523022D02*
D03*
X1236276Y445108D02*
D03*
X1217276D02*
D03*
X1217364Y469292D02*
D03*
X1236364D02*
D03*
X1236276Y493368D02*
D03*
X1217276D02*
D03*
X1217364Y518822D02*
D03*
X1236364D02*
D03*
X1260544Y473102D02*
D03*
X1279544D02*
D03*
X1519624Y344832D02*
D03*
X1538624D02*
D03*
X1594140Y1037556D02*
D03*
X1575140D02*
D03*
X1594140Y1062956D02*
D03*
X1575140D02*
D03*
X1594026Y1087728D02*
D03*
X1575026D02*
D03*
D23*
X1661940Y805180D02*
D03*
X1695940D02*
D03*
D24*
X1573530Y802320D02*
D03*
Y762320D02*
D03*
X1513840Y860110D02*
D03*
Y900110D02*
D03*
X1209040Y676590D02*
D03*
Y636590D02*
D03*
D25*
X1601200Y964520D02*
D03*
X1600200Y858520D02*
D03*
X1428750Y480060D02*
D03*
X1429750Y586060D02*
D03*
X1305830Y310560D02*
D03*
X1306830Y416560D02*
D03*
D26*
X1573530Y677672D02*
D03*
Y713740D02*
D03*
X1567180Y345440D02*
D03*
Y381508D02*
D03*
X1629410Y1114552D02*
D03*
Y1150620D02*
D03*
D27*
X1454490Y748320D02*
D03*
Y765320D02*
D03*
Y782320D02*
D03*
Y799320D02*
D03*
Y816320D02*
D03*
D28*
X1644650Y584980D02*
D03*
Y618980D02*
D03*
X1329690Y631970D02*
D03*
Y665970D02*
D03*
D29*
X1155700Y382270D02*
D03*
X1119632D02*
D03*
D30*
X1223010Y332750D02*
D03*
Y365750D02*
D03*
X1189990Y332750D02*
D03*
Y365750D02*
D03*
X1243330Y636280D02*
D03*
Y669280D02*
D03*
X1564640Y527040D02*
D03*
Y494040D02*
D03*
D31*
X1476920Y1226820D02*
D03*
X1433920D02*
D03*
D32*
X1318500Y488950D02*
D03*
X1348500D02*
D03*
D33*
X1283970Y553148D02*
D03*
X1271270D02*
D03*
X1258570D02*
D03*
X1245870D02*
D03*
Y607631D02*
D03*
X1258570D02*
D03*
X1271270D02*
D03*
X1283970D02*
D03*
D34*
X1530350Y493270D02*
D03*
Y525270D02*
D03*
D35*
X1592580Y482270D02*
D03*
X1605280D02*
D03*
X1617980D02*
D03*
X1630680D02*
D03*
Y536270D02*
D03*
X1617980D02*
D03*
X1605280D02*
D03*
X1592580D02*
D03*
D36*
X1470660Y1032240D02*
D03*
X1521460D02*
D03*
D37*
X1496060Y1134740D02*
D03*
D38*
X1447800Y988900D02*
D03*
Y969440D02*
D03*
D39*
X1576070Y1153690D02*
D03*
Y1120890D02*
D03*
D56*
X1264920Y580390D02*
D03*
D75*
X1358190Y782320D02*
D03*
D76*
X1611630Y509270D02*
D03*
D82*
X1079480Y518190D02*
D03*
X886480D02*
D03*
X1079480Y1074390D02*
D03*
X886480D02*
D03*
D83*
Y1162290D02*
D03*
Y433290D02*
D03*
X1079480D02*
D03*
Y1162290D02*
D03*
D84*
X952500Y321310D02*
D03*
X1060450D02*
D03*
X1446530D02*
D03*
X1644650D02*
D03*
D85*
X977900D02*
D03*
X1085850D02*
D03*
X1471930D02*
D03*
X1670050D02*
D03*
D86*
X1665530Y1223010D02*
D03*
X1506930D02*
D03*
D87*
X1558290Y283210D02*
D03*
X891540Y292100D02*
D03*
X1708150Y1054100D02*
D03*
D88*
X1383030Y1216660D02*
D03*
X1332230D02*
D03*
D89*
X1244600Y819950D02*
D03*
Y869950D02*
D03*
D90*
X1202690Y1129030D02*
D03*
D91*
X1253490Y1167130D02*
D03*
Y1103630D02*
D03*
D92*
X1749290Y1223550D02*
D03*
X1748790Y283210D02*
D03*
X808500Y282750D02*
D03*
X808450Y1223300D02*
D03*
D93*
X1592130Y502770D02*
D03*
Y515770D02*
D03*
X1605130Y502770D02*
D03*
Y515770D02*
D03*
X1618130Y502770D02*
D03*
Y515770D02*
D03*
X1631130Y502770D02*
D03*
Y515770D02*
D03*
D94*
X1709293Y906780D02*
D03*
Y1005126D02*
D03*
D95*
Y881380D02*
D03*
Y979726D02*
D03*
M02*
