M48
;Layer_Color=9474304
;FILE_FORMAT=4:4
METRIC,LZ
;TYPE=PLATED
T01F00S00C0.3000
T02F00S00C0.4000
T03F00S00C1.0000
T05F00S00C1.2600
T06F00S00C1.2700
T08F00S00C1.6000
T09F00S00C3.1000
T10F00S00C3.2000
%
T01
X0078818Y0028275
X00794132Y00268382
X008085Y0026243
X00822868Y00268382
X0082882Y0028275
X00822868Y00297118
X008085Y0030307
X00794132Y00297118
X0082Y0032
X008Y0036
X0099187Y0037211
X0112Y0036
X0113411Y0036068
X0118364Y0038354
X0119634
X0121666
X0122936
X0137668
X0138938
Y00355283
Y00327025
Y00298768
Y0027051
X01734422Y00268842
X0174879Y0026289
X01763158Y00268842
X0176911Y0028321
X01763158Y00297578
X0174879Y0030353
X01734422Y00297578
X0172847Y0028321
X0169418Y0037592
X0165862Y0038608
X0169418Y00400557
Y00425194
Y00449831
Y00474468
Y00499106
Y00523743
Y0054838
X0167005Y0053721
Y0051181
Y0048641
Y0046101
X0165354Y0047371
Y00498263
Y00522817
Y0054737
X0161925Y0060833
X0160782
X0159385
X016383Y0065024
X01651
X0160655Y007366
X0159258Y0045974
X0158242
X0156591
X0155575
X0153924
X0152908
X0150241Y00473075
Y0044577
Y0050038
X0154051Y0058
Y006
Y0062
X0155575Y0060833
X0156591
X0158115
X0153035Y0064516
X0154432Y0066548
X0153035Y0068707
X0154432Y007112
X0150495
X0149098Y0068707
X0150495Y0066548
X0149098Y00644586
X0145161Y00643965
X0141224
X0137287Y0064389
X0138049Y0069723
X01397
X0133604
X0132334
X0130048Y0067564
X01288627
X01276773
X0126492
X0125476Y007239
X0124714Y0075311
X0123317
X0121031
X0129413Y00755438
Y00771737
Y00788035
Y0073914
X0131191Y0061341
X013208Y0060579
X0133324Y0060579
Y00582083
Y00558377
Y0053467
X0132588Y0051054
X0131318
X0130937Y0047244
Y0056896
Y00582295
Y0059563
X0122428Y00594678
Y00578485
Y00562293
Y005461
Y0061087
X0121666Y0042799
X0137668Y0042291
Y00403225
X0145415Y0073406
X0150368Y0075819
X0118Y0072
X0116Y0068
Y006
Y0052
X0106807Y0039878
X0104013
X0100965
X0094Y004
X009
X0086
X0082
X008Y0044
X0084
X0086Y0048
X009
X0094
X0092Y0052
X0094Y0056
X009
X0086
X0082
X008Y006
X0084
X0082Y0064
X008Y0068
X0084
X0082Y0072
X008Y0076
X0084
Y0052
X008
X0082Y0048
X0092Y0044
X0082Y008
X008Y0084
X0084
X0082Y0088
X008Y0092
X0084
X0082Y0096
X008Y01
X0084
X0082Y0104
X008Y0108
X0084
X0082Y0112
X008Y0116
X0084
X0118Y0112
X0129794Y0108712
Y0106934
Y0099695
Y0098044
Y0090551
Y00889635
Y0087376
X01322705
X0134747
X01372235
X01397
X0144399Y0089535
X0145542
X0147193
X0148336
X0151384Y0093472
X0142875Y0102108
Y01056005
Y0109093
Y01125855
Y0116078
X0145161Y0118745
X0148336
X0153035
X0155702
X0129413Y0083693
Y00820632
Y00804333
X0159752Y0080264
X016383Y0079629
Y0081026
X0166116Y0082677
Y0083693
X0164338Y01023288
X0162179Y0101727
Y01032764
Y01048258
Y01063752
Y01079246
Y0109474
X0164338Y01082131
Y01111553
Y01140975
Y01170396
Y0105271
Y01199818
X0168021Y0120015
X0172085
X01734922Y01209182
X0174929Y0120323
X01763658Y01209182
X0176961Y0122355
X01763658Y01237918
X0174929Y0124387
X01734922Y01237918
X0172897Y0122355
X0170053Y0122301
X0172085Y012446
X0167894
X0162306Y0122555
X0155702Y0122428
X0118Y012
X0114
X011
X0106
X0102
X0098
X0094
X009
X0086
X00822818Y01208932
X0080845Y0120298
X00794082Y01208932
Y01237668
X0080845Y0124362
X00822818Y01237668
X0082877Y012233
X0078813
T02
X0159213Y0050277
X0160513
Y0051577
X0159213
X0161813
X0163113
Y0050277
X0161813
T03
X009525Y0032131
X009779
X0106045
X0108585
X0144653
X0147193
X0164465
X0167005
X01709293Y0088138
Y0090678
Y00979726
Y01005126
T05
X0166553Y0122301
X0150693
T06
X0133223Y0121666
X0138303
T08
X0088648Y0043329
X0107948
Y0116229
X0088648
T09
X008085Y0028275
X0174879Y0028321
X0174929Y0122355
X0080845Y012233
T10
X0088648Y0051819
X0107948
Y0107439
X0088648
M30
